<svg id="Layer_1" data-name="Layer 1" xmlns="http://www.w3.org/2000/svg" viewBox="0 0 2400 1294"><g id="countours"><path d="M1268.56,0h21.75l-1,2.44-3.78-1.13-1.67,2-4,2.89-2.84,1.19-1.42-1.25h-2.36l-1.42-2.83Zm52,11.78h-1.89l-1.54-5.65.59-1.65,2.84-.59L1322,1.41l2.32-.41,1.89,1.67L1330,3l1.89-.92,1.9.6,1.89-.92,2.83,1.08,3.79-2.2,2.6,1.73-.05,1.88L1338.53,7l-1.89-1.89-1.89-.28-3.78,2L1328.13,6l-4.73,2.49Zm-13.41,5.66h-2.47l-1.06-5.66.59-1.88L1307,8l2.21-.06,2.84,2-1,2.32-1.89.15ZM0,25V.47L.47,0h10.4L5.48,3.3l.29.94L9.93,5.48,12.72,8l.85,2.83-1.39,3.77L4.87,19.33,2.44,23.1ZM20.33,0H80.85l-.94,2.27L77.38,5.18l4.42,3,3.78.37L88,10.84l-1.69,3.77-3.16,2.83-.9,2.83-1.74,1.88-1.18,3.78-1.4,1.88.29,3.77-2.1,1.77-1.89,2.81-7.56,3.32L65.14,36.3l-5.09-.12-2.45-.83-1.4-2.82,3.19-6.6L62,24l-.37-3.77.46-2.83,1.67-2.83.71-4.71L57.21,7.7l-2.8,4.08-.35,2.83-1.49,2.83-4.82,5.25-1.89,1-2.31-2.49.29-2.83L41.13,17l-6.61,3.32L33,20.27l-.11-3.77-1.21-1.59-1.89.22-1.48-1.46L27.5,9.9ZM773.52,75.9l-3.31-1.13L767.6,69.3l-1-6.6.86-6.6,1-4.72.12-5.65,1.61-3.44,3.41-8.82.31-1.89,5.21-10.37,1.78-7.54,1.26-3.77,2.22-4,.94-.52,4.73,2.52,8.51.92,4.76,3.92-.11,2.83-3.49,4.71L798.37,24l-2.17,3.77-.7,5.66,1.87,3.77-1,7.54-2.5,3.95L790.07,50l-3.78-.19-3.78,5.67-1.44,3.48-.8,3.77-1.92,4.71L774,75.63ZM2400,97.59l-2.23-1.89,2.23-1.88ZM0,99.48V34.41l.47-.89L9,31.63l1.89-1.88L13.71,31l3.78,3.72,2.84,1.72,3.78,3.64L25,42,23.4,44.78,24,46.67l3.89.73L33.57,47l1.33,1.6L34,54.21l-1.4,3.08-2.27,2.58,1.33,1.73,4.73-.38,2.83.33,2.84-2.06,2.84,1.4,4.73,0,2.83-.64L54,61.75l-1.44,2.83-1.25,7.55L52,75l-4.28,4.32-2.83,1.25-3.05.08-1.68-1.54-1.89.26-1.64,6.94L38.2,89.1,38,91.93l1.5,7.55-.46.94-6,3.77-3.26,3-5.68,1.5-4.72-.74L17,105.13l3.23-10.37-.34-7.54L19,85.33,16.55,77l-2.84.91L11.82,81.2l-1.13,7L8.33,96.65l-.68,3.77-1.5,4.51-2.89.2-.42-2.83Zm2353.09,23.57-3.68.66-1.18-1.6,2.18-1.89,10.35-5.48,4.72-1.61,5.68-3.28,6.62-3.25,1.89.2,2.27,3,.19,2.83-1.52,1.85-2.83.87-3.78.11-2.84,2.39-4.73,1.51-2.84,1.53-7.56.6Zm-1589.4,2.83h-.81l1.12-8.49.2-3.77,1.28-2.49,1.7.61-1,4.71.17,4.72ZM0,174V127.77L1.65,124l1.66-.91,6.62.23,5.67,1.78,1.49,1.73L15,129.66l-2,6.6,2.54,1.63,3.19,4,2.49,1.35,4.72.53.18,2.83-3,1.7-.28,4L20.78,157l-1.66,1.89H15.6l-.47-4.72-1.42.25-6.62,7.09-1.89.3-2.84-1.25,0,4,1.75,5.66-.83,1.88Zm2210,46.23h-4.11l.34-1.89,4.15-2.56,8.51-7,3.78-2.09,4.73-4,4.73-2,3.38-3,8.91-6.4,1.9-1.79,9.42-6,5.71-4.83,10.4-6,8.51-7.24,7.56-4.65,8.63-6.56,4.61-2.44,8.51-6.76,5.68-3.27,4.72-3.54,4.73-2.15,1.89.11,1,2-1,1.88L2322,144.5l-3.79,1.71-2.83,3.76-5.68,4.94L2305,157l-2.15,1.89-10.14,6.32-1.89,2.28-9.46,7.31-2.83,1.5-5.68,1.31-4.41,3-1.21,2.83-3.83,4.62-10.22,6.71-6.8,3.14-1.9,1.66-3.78,1.41-1.89,2.83-6.62,3.94-2.84,2.33-4.72,2.51-3.79,1.11-4.72,3.21-3.79,1.56Zm-886.93,84-1.31-1.89,2.57-1.1,1.58,1.1Zm9.77,2.83-2.84-.94-2.83-3.59,2.83-.26,3,2ZM489.13,389.18l-6.39.55-2.83-1.58-1.12-1.81,1.18-4.72,2.77-6.27,4.95-7.89,3.56-4,1.89.54,1,3.46.86,12.27-1,4.73-2.94,3.77Zm11.11,13.22h-.85l1.18-7.56,2-6.18,1.8,1.46-1.18,3.78-.47,4.72ZM2004.8,432.61l-2.44.65h-4.72v-3.52l7.46-10.35,11.72-14.16,4.46-5.1,8.2-10.95,4.09-3.28,2.84-1.31,1.52-2,.85-2.84,2.35-4.68,7.57-8.69,4.76-6.45,10.37-10.73,1.89-.51,4.73.85,1.58-.94-.81-6.61.79-3.78,3.14-3.77,6.19-5.67,3.47-4.72,3.41-3.77,4.92-3.64,7.47-8.63,8.61-7.4,5.67-3.86,4.73-6.07,5.68-5.43,5.28-3.67,3-2.83,4-5.22,7.56-5.11,4.73-4.36,8.92-7,10-9.52,6.78-5.58,4.57-2.16,1.37.28.31,2.83,1.67,2.83-4.29,4.72-7.57,5.13-2,3.36-3.64,2-1.89,3.66-2.84,1.51-5.7,4.18-2.14,2.84-3.26,2.83-5.92,6.42-3.78,2.79-5.06,4.94-3.33,4.72-5.8,4.9-5.48,2.65-2.43,4.72-2.16,2.84-1.65,4.72-3.87,6.6-5.41,4.72-2.85,4.72-8,10.39-6.76,6.6-9.62,3.44-1.89,1.29-.94,2.83.31,5.66-2,5.67-2.75,5.66-4,4.72-6.69,4.72-4.66,3.87-8.51,3.9L2044.6,392l-1.38,4.72L2040,402.4l-4,4.72-6.18,4.16-5.27,4.34-9.63,8.5-3.07,3.37-3.81,2.29ZM1651.54,0h47.28l1,3.3-2,3.68-2.83.68-2.11,2.24.73,4.71-3.22,3.77-2.83,6.6-1.71.95-1.27,2.75-8.51-.92-.54,1.94,1,3.77-2.35,1.06-.48,1.77.9,3.77-.42,2.91,2.72,1.8-1.28,2.83.83,2.83-1.65,2.83.13,1.88-1.69,4.9-2.84,1.41-1.53,3.12-2,1.89-1.05,3.77-2.95,2.17-2.07,4.43-2.35,2.83-1.31,2.83-2.7,1.89-1.6,3.77-3.2,1.3-1.9,1.92-3.78-.23-2.84,1.61-5.67-.86-1.89-1.65-1.77,1.68-1.68,3.77,1.86,2.83,1.57,7.55-.55,4.71,1.11,4.72.06,2.83,1.33,2.83-2.58,2.83,1.25,2.83-2.12,2.83-1.32,5.78L1628,137.2l-1.57,4.72-2.33,2.66-2.41,5.83-1.61,1.88-2.74,6.61-5,6.6-6.17,6.05-2.84.64-2-2-1.4-6.61-2.32-1.61-1.63,3.5-1.77,1.89-1.91,3.77-2.64,1.89-.33,2.83-3.58,2.83-.92,1.88-2.71,8.5.36,2.27,6.62-4.2,2.25-.9.61,2.83-.15,3.77-2.57,2.83-.5,3.77-3.43,2.54-2.4,3.12-.35,1.89-4.75,4.72-1.16,2.83-2.68,1-1.27,2.73-2.52,1.34-2.41,3.38-1.37,3.19-2.84.15-1.19,4.21-3.58.94-.36,2.83-1.49,1-2.83-1.43-1.37,3.25-2.42,1.88.69,2.83-2.58,2.35-2.56.48.57,3.78-5.57,4.07-3.78-.49L1535,257l1.8,2.83-1.43,3.78-3.34,3.77.23,1.89-3.67,1.72-.74,2.06-2,.94,0,3.89-2.84.86L1521,281.1l-4,.46-1.71,6.14-2.48,1.41-.77,2.83,2.3,2.2.29,4.41-1.23,1.75h-2.84l-.61,2,1.19,2.84.14,2.83-1.48,1.89-.77,4.72-2.64,3.77-.15,2.83-2.84,4.72.32,2.83-.73,2-1.89,1.5-.94,5.16-1.89,1.4-1.46,3.13-.11,4.72-1.27,1.22-1.47,3.5-1.57,1.89-.1,2.83-2.44,4.72-3.88,3.1-.9,5.4-3.62,5.66-1.15,6-3.78,2.4-1.8,2-.51,4.72-1.48,2.89-4,2.78-1.81,3.77.16,5.67-3.78,2.58-.55,5-3,2.84-1.13,3.77-2.4,2.84-.79,5.66-1.64,2.68-2.84,2-1.24,1.93-.82,4.73-2,4.72-4.45,2.93-2.17,3.68-1.36,3.78-3.09,3.09-1.52,3.52-2.15-.95,2.44-6.61,3.13-6.11,1.78-2.39.5-2.83,2.44-4.42,1.59-1.25,1.19-4.72,2.83-6.61,2.62-7.55,4.54-4.73,2.92-5.66,1.5-6.61,2.45-3.78,3.65-9.44,3.43-5.67.69-3.77,1.69-4.72.43-3.78,1.19-2.83,2.38-8.69.68-4.53,1.82-6.61.09-1.89,2.73-9.44,2.25-11.19,1.66-4.86.23-2.83,1.89-8.36,2.83-7.4.82-1.23,2-11.32,1.82-3.78,1-4.72,4.76-13.56.71-4.37,1.68-5.66,3-6.61,2.43-7.55,1.67-2.93,1.46-5.56,2.57-5.66,4.33-7.55,4.92-5.66,7-14.15,3.41-5.39,2.07-5,2.66-3.66,3.29-6.72,3.33-5.32,2.89-6.94.76-3.78,1.08-1.35,5.67-9.63,1.69-4.11,3-4.72,1.87-3.77,2.32-2.83,4.13-8.49,1.58-1.88,4.79-10.38,2.62-2.83,2.62-4.71,1-2.83,2.37-2.83,6.8-13.21,2-2.82,3.39-7.55,6-8.2,1.46-3.11,4.21-5,6-10.12,2.51-2.21,3.14-4.39L1626,35l8.44-11.89,1.64-2.83,3.16-3.77,5.68-8.21,2.83-2.76ZM284.16,0h52l1.42,1.41,4.25,1,1.94,1.88L344,6.13l-1.95,11.31.5,2.83L345.08,24l-.57,4.71,1.26,5.66.16,6.6-.9,3.77L343.1,49.5l-2.05,1.88-3,1.16-5.67,1.36.55,1.25,5.22,3.78,3.68,1.7,2,2.07.89,4.71-.37,1.89-2.47,3.5L337.12,74l-9,2.84.71,1L338.06,80l3.36,2.55-1.22,9.43-1.43,3.77-3.9,2.83.35,1.89,3.79,1.15.93,2.62L338.52,108l-1,4.72-4.15,8.82-5.67,1.68,2.89,3.65-.47,4.71,1.9,2.83-2.19,8.49-3.29,6.6-1.68,1.74-4.17,1.09,1.34,3.38,1.89,1.11L325,158.9l-1.48,8.49-3.44,4.14-3.78-.13.53,4.48,2.31,1,2.07,3.72L319.4,193.8l-1.2,2.8L315.37,198l-2.33,3.4,4.22,1.72,2.28,3.94.54,3.78-.47,1.88-6.13,1.89,4.37,3.77.31,2.83L317,223.05l-1.43,4.72-.13,4.72-2,1.56-3.79,1.09-4.48-.77,1.25,2.84-1,3.77.2,1.89-1.56,6.6-3.84,2.83,0,1.89,2.43,1.89,1.15-2.83h4l.37-6.61,2.13-4.72,2.17-1.1,2.84.82,2.9-.66,3.16-1.89,8.12-9.19,2.92-.24,1.81-6.38,2.87-4,3.13-2.83,2.33-4.72,7.74-6.41,1.9.58,1.89,2.82,4.73-3,2-.56,3.82-3.77,1.14-3.77,2.84-3.78L372.1,191l3.79-1.78,6.35-1.05-.49-3.77.83-1.89,2.76-1.35,5.68,0,.3-1.51-1.65-3.77-.12-3.78,3.75-5.66,6-5.66L404,157l1.28-2.83,3.67-3.77,2.84-1.37,8.51.53,1-1-1.79-4.72.27-3.77,1.47-2.31,3.78-3.08,1.76-2.15,5.63-4.72,3-1.63,3.78-.84,2.84.32,1.89,2.45,1.29-3.13,3-1.89-4.61-4.71-.43-2.83,2.33-2.83L448,108l2.79-3.77,3.4-2.83,5.86-6.6,1.7-2.83,2.05-1.26,3.78-.22,1.89,1.14,2.84-1,1.89.51,2.1-2-4.94-2.75-2-3.85,1.22-2.83L477,72.13l.79-1.89,3.51-3.77,3.36-2.09,2.84-.58,3.78.13,2.84.85.66-2.08-4-4.72,1.11-3.77,5.82-4.71,1.3-2.83,1.71-.58,3.78,2.42,1.95,0-.39-2.82.43-3.78L509,38.18l3-.37,1.84-1.51-.82-3.77,1.81-2.59,3.35-2.13,1.26-1.88,5.8-5,3.78,2.51,5.67.25L538,25l.17-2.83-3.69-5.65,1.27-2.6,4.12-1.17,2.5-4.09,2.83-.91L548,5.27l1.89.82,2.84,4.19,2.22,1.5,2.51,3,3.89-3L559.13,8l1-5.65,3-2.36h92.67l.32,4.24-.86,2.83L656,9.9l1.71,1.38,1.89-.12,2-2.2,1.81-.14,1.89,3-1.89,5-1.89,1.52v3L663.74,24l-.38,5,4.43-4L669,21l3.78-.87,3.79,2.25,1.5,3.54-.42,8.48L677,36.3,671.83,42l-1.72,5.66L667,50.44l0,1.89L668.88,57l-1.55,2.83,0,2.83-3,3.18-2.83.16-6.62-2.71-1.37-2.52-2.57.94.15,3.2-3.7,2.46,5.6,1,1.64,1.86.85,3.77-1.55,4.23-2.84,2.53-4.43,2.67-.56,1.89,1.3,2.83-3.64,5.66-1.28,2.83-1.79,1.88-1.89.3L635,95.63l-1.85,8.56-2,2.83-.12,3.77-1.69,3-3.78,3.9-1.89.89-1.89-2.35-1.89.47-1.21,3.52L617,122.11l.89,3.77-1.77,2.36-3.79-.66-1.59,1.13.12,2.83-3.25,2.83-.13,1.89,2.18,1.89-1,1.88-3.69,3.77L602.84,147l-1.89,1-2.84-2.15-1.89.51-.25,2.23,2.08,4.72-.73,2.83-3.94,7.09-2.84,3.49-2.83-.07L584.87,168l-1.56,2.2-.33,5.66.63,2.83-5.36-.11-2.63,2.94-.61,3.77.72,2.83,1.64,1.89-1,3.26-1.89,2.61-3.78.33-1.32,1.35-.2,3.77-2.27,3.46L565,206.5l-4.73.89-1.81,4.34.53,2.83-1.66,2.83-5.57,5.19L548,221l-8.51,2.63-10.24,6L524.35,234l-2.84,1.15-5.67,3.74L513,240.11l-4.73,3.47-2.83,4.3L496,254.55l-4.73,1.53L489.52,258l-1.25,7.55,1.09.77,3.65-2.66,6.75-2.66,8.51-5,7.84-5.58,3.2-1.89,15.44-7.41,1.89-.47,1.52,1.27-2.46,2.13-7.57,4.27-2.83,1-9.46,6.21-5.67,4.68L505.44,265l-5.68,4.07-3.69,4-4.82,3.72-2.83,2.77-5.68-2.05-2.13,2.16,3.08,1.49,1.39,3.23-6.16,17.93-1.85,4.42L475,306.1,472.34,302l-2,2.22-.58,1.89,2.63,6.42,3.65.19.42,5.66-2.07,12.27-2.41,6.61L469.81,342l.17,8.5-2.06,6.61L466.49,359l-3.61-.22-.89-1.66-1-4.72,1.25-4.73.39-3.77-.69-5.67L461,336l-1.89.41L455.59,341l-4.14,4.72-2.16,3.77-.56,2.84L445.68,358l-3.33,13.22-1.07,5.66-3.35,9.44-2.47,3-2.84,1.47-3.78-.82-3.31-3.6-.15-4.72,1.26-7.55,2.56-7.55,3.66-9.44,2.24-7.56,3.82-10.38L444,323.09l2.17-9.44,2-5.66,3.57-13.22.27-2.83,1.32-4.72,1.22-8.49,1.79-5.66,1.63-6.61,2.31-6.61,5.31-11.32,3.84-10.38,4-7.55,8.69-14.15,1.5-1.71,2.44-4.9,1.66-.94,3.76-3.78,2.76-4.71,4.51-4.6,8.95-11.44,4.29-2.1,7.56-1.64L531,179.32l6.62.43,5.67-1.21,2.84-1.14,3.21-2.47,2.83-3.77,3.42-6.6,5.12-15.1,3.48-6.6,3.22-8.49,2.18-3.77,1.86-4.72,2.1-3.17,3.61-8.14,3.69-5.66,1.94-5.66,1.34-5.66,1.6-3.77,3.58-5.66,1.26-4.72,3.22-5.65L595.84,75l2.27-6.6,3.83-2.83.95-2.83,6.35-11.32L611,45.73l1-6.6-.11-3.78.7-2.82-2.18.22-4.73,3.55-3.78,3.58-4.73,2.74-3.78,3.55-2.49,3.33-4.13,2.83L583,54.26l-3.78,3.32-5.26,3.23-6.09,2.33L564.07,67l-4.73,1.78-4.61,3.36L553.6,74,548,80.71l-3.78,3.42L538.16,91l-4.35,2.75-4.42,3.85-4.09,4.47-7.1,8.73-5.2,5-4.4,6.29-1.72,3.77-2.76,7.55-2.76,3.77L499.62,141,495,147.25l-2.84,2.38-7.57,3.45-4.72,5.78-4.73,5-4.73,5.83-2.07,3.38-7.58,8.49L454,190l-6.32,8.49-5.08,5.66-1.48,2.2L436.41,211l-1.58,2.6-4.2,4.71-9.35,13.42-3.68,2.62-11.45,12.11-6,7.71L397.7,258l-3.33,6.6L391,262.29l-5.68,6.4-2,1.54L381,274l-9.59,7.55-4,2.71-2.84.84-1.89,2.67L357,291.3l-6.62,3.63-2.83.93-5.68,3.35-10.87,6L323.88,308l-6.62,3.48-2.84,2.08-8.23,4.82-3.12,2.56-3.78,4.24-6.62,6.36-2.84,1.28-4.72,4.6-9.46,7.11-5.19,6.89-8,7.81-1.89,2.89-4.73,4-4.6,5.09-3.91,2.68-3.1,3-5.41,3.91-5.67,6-6.62,5.29L223.64,395l-1.89.84-2.57,2.75-6.89,5.82-2.46,2.68-3.21,1.4-7.57,6.78-7.56,5.7-3,1.23-1.72,2.43-1.89.62-1.72,2.61-6.79,6-4.73,5.68-2.57,2.46L157.45,454.9l-3.79,2.91L150.92,461l-5.07,3.78-3.53,1.44L138.53,470l-2.83.44-3.79-1.53-2.21-5.15L126.24,460h-4.83l3.75,4.73.33,2.83-2.09,3.38L121,472.28l-8,3-3.78,2-5.67.68-2.84-1.57H98.82L96,477.74l-3.78.12-2.84-1-2.43-1.77-4.32-8.5-1.38-4.73.43-4.72-1.52-3.78-1.5-6.61.71-2.83-1.07-2.84.18-10.38L79.85,427l-.73-5.67,1.39-4.72.29-3.78,2-2.83-.78-3.78.76-4.72L84,397.68l2.23-2.84-.17-3.77.82-2.84.15-4.72,3.29-3.78L89.25,376l.58-1.89,3.31-2.66,2.84-7,2.84-4.15,2.52-1.26-.33-3.77,2.22-2.83,2.9-6.61,3.27-2.84.06-2.83,1.14-2.83,5.24-6.49,3-7.67.62-5.66,5.1-13.22,5.69-5.66.74-1.89.42-4.72,2.1,4.72,4.52,4.72-.77-3.77,1.34-5.67,4.68-5.41,6.62-10.14,2.35-2.38,3.33-6.84,1.33-5.43,2.68-5.66,2.45-1.89,7.14-11.32,4.36-9.44,2.84-1.51,3.78-3,6.13-8.65,3-3.77-.09-2.83,6.05-3.88,3.78-1.1,2.84-4.46,7.63-6.6,4.66-5.29,2.43-4.15,1.36-1.26,3.78-.85,2.84.23-.17-2.84,1.11-2,3.78-2.29,4.68-7,1.94-1.88,2.11-3.78,4.51-4.21,3.31-2.39,1.86-3.77,4.24-5.66,2.53-6.61,5.64-7.54.27-5.66,2-5.66.08-2.83,1.85-7.23.68-6,1.54-3.78-.8-3.77.34-7.54L267.61,91l-.82-2.83.26-2.83,1.67-7.54L270.19,74,271,62.7l1.1-10.37-.22-2.83L273.76,41V38.18l1.07-2.83L277,26.87l1.12-6.6,1.39-2.83V15.56l2-6.6.84-4.72ZM541.37,567.7l-2.89-1,0-2.93-1.48-3.68.54-2.83,2.84-2.07,1.89,1.12.09,2.84,1.8,2.83v2ZM427.12,727.44h-3.2l-1.38-1.89,2.52-1.26L427,725ZM1989.13,0h30.26V1l-8.25,7-7.72,7.55-4.24,3.77-5.33,3.58-3.78,3-8.51,8.72-2,2.59-7.28,6.6-6.8,7-6.61,5.66-2.1,2.38-5.47,4.23-15.78,14.63-3.67,4.71-2.3,1.57-9.37,8.8-2.92,1.74-6.62,4.87-4.73,5.71-6.62,5.29-6.6,3.14-4.75,5.69L1882,124l-5.41,4.74L1870,135.1l-4.73,3.17-6.62,5.29-3.1,3.07-4.47,2.94-6.16,4.61-6,5.66L1835,164.5,1823.64,175l-5.67,4.22-3.79,3.9-6.61,6.16-1.34,1.68-10.11,8.49-5.76,5.66-9.27,8.12-7.73,7.92L1770,224l-3.11,3.47-7.59,6.9-4.7,4.82-7.57,6.56-3.73,4.67-5.72,6.08-4.73,5.76-4.73,3.85L1713,281.41l-4.73,5.92-1.89,1.5L1695,300l-3.79,5-5,4.88-2.54,3.52-6.62,5.57-3.46,4.12-6,4.75-2.83,3.69-6.62,7-3.79,3-6.94,7.05L1643,354l-10.15,9.69-2.15,2.5-9.48,7.89-5.33,5.66-1.81,2.84-9,9.44-6.72,7.55L1590.73,410l-5.77,9.44-5.29,7.47-4.56,7.64-2.23,2.84-3,5.66-3.44,3.66-6.91,12.4-4.22,4.72-7.73,12.28-2.72,4.72-2.64,2.84-1.31,2.5-3.78,4.32-4.09,8.29-3.48,5-1.89,1.58-5,9.52-2,2.83-2.88,5.67-2.83,2.84-4.63,7.56-2.49,2.83-4.26,8.5-3.13,2.84-4,6.58-2.52,1.92-.8,2.84-2.83,4.72-1.41,4-3.59,2.66-.63,3.78-1.48,2.84-3.92,4.72-1,3.78-3,3.78-1.4,2.84-1,4.72-2.28,3.78-2,1.89-1,4.73-3.81,7.56-2.24,1.89.61,3.78-1.59,4.13-2.42,4.38-1.14.94-.47,2.84-2.56,3.78-.66,3.78-2.89,1.89-.2,3.78-2.9,5.08-2.84.29-.45,4.08-2.73,7.56-3.43,4.73-4,2.84-.43,2.83-3.11,5.15-5.49,6.2-2.38,4.72-1.59,1.32-4.63,1.52,1.19,2.84-.13,1.89-4,3.78-1.62,3.78-1.26,6.09-4.73,3.6-.87,1.66-.66,7.56-1,1.89-4.1,2-6.62,1.15-6.61.65-2.59-1-.91-3.78.54-2.84L1382,717l-1.89-.45-6.62,1.33-6.81,4.79-2.93-.94-2.19-6.62-4.42-7.56L1356,701l-1.39-5.67.22-2.84-.62-7.56-2.44-1.23-1.89,5.09-5.67,2.91-1.89,1.44-3.79,5.8-1.89-.56-.6-4,1.46-2.84,1-6.07,5.08-7.16,1.88-1.89,1.06-7.56,6.39-12.29,1.67-1.8,2.84-1,1.89,1.68,1.89-.36,3.76-3.23,0-3.78,1.89-1.89.17-2.84,1.57-3.78-3.63-1.18-5.67,1.18-.93-.94.51-3.78,2.06-4.73,3.23-4.72,2.69-5.27,4.73,0,4.73-1.91,1.89.69.44,3.6-1.23,3.78,1.66,1.89.19,3.78,2.72,2,1.89-3.08,3-.84.75-2.12,3.78-2.51,3.78,1.15-1.67-5,2.39-1.89.12-3.79,2.26-1.89-1.44-3.78.61-1.89-1.22-2.83.79-2.84-2.78-.55-2.8,3.39-1.93.3-.12-3.14,3.42-7.56,2.13-3.78,2.54-7.56,2.19-10.39.13-4.73,1.53-7.55,1.42-.92,2.3,3.75-3.19,7.56.89,3.78,3.46-1,2.21,2.46,1.89-5.92h3.78l1.66-1.26.24-3.4,3.78-.38,3-2.84,5.49-2.59,1.26-3.07-1.26-.95-3.78,1.15-4.73-.2-1.77-.95-1.54-2.83,1.1-4.73,11.66,2.29,2.84-.4,1.16-1.89-1.5-1.89,0-3.78-3.12-5.67-.52-1.89,4-.71L1435,536l2.84-1.34,2.83-.35,1.89-1.77,5.68-1.28,3.06-3.25,2.61-1.16,4.73-3.61,3.78-.14,5.68-4,4.72-.21,1.89-1.87,7.57-.85,1.83-4.2,3.84.25,1.3-1.2.82-2.83,1.49-.95,3.61-4.72-1.27-3.78.67-1.58,2.84-1.25.47-2.84,2.39-1.89.92-1.95,4.73-4.38,2.84-.92,1.09-4.08,2.27-2.83,2.31-4.08,4-1.59-.18-3.78.86-3.15,1.89-1.32,1.63-3.09,5.19-3.77-.1-4.73,3.74-5.66,2.44-5.67,3.18-4.25,4.72-2.62,2.84.08,2.35-1.71.21-1.89-1.61-1.68-.28-2.1.64-4.72,2.49-2.83,2.82-5.56,2.84-2.59,3.78-5,2.84.05,2.83,1.18,2.23-2.28-3-7.55.69-2.83,4.81-4.95,3.78-2.76,1.9,1.18,3.44-1,1.16-1.88-.14-4.73,1.16-3.77,1.84-1.89,2.94-1.07,1.46-1.76-.18-2.83,3.55-4.73,6.51-4.48,3.79-.17,1.89-3.37,2.54-2.36,3.39-1.89.76-2.83,2.26-3.78,6.78-4.72,1.29-2.26,4.73-4.09,1.89-.38,1.89,1.51,3.78-.22,2-2.11,1.52-4.72,4.87-3.78,2.79-10.38,1.17-1.89,3.36-2.83,1.3-2.49,2.84-.36,1-2.42,2.83-3,4.73-.78,1.2-1.31.15-2.83,1.35-2.83,1.86-1.89,3-4.72,1.89-1,1.71-2.73,2.3-.94.72-2.43,4.43-2.29.67-2.83,2.46-3.24,4.6-1.48.13-2.9,4.89-4.65,4.22-2.83,1.17-1.89,3-2.26,2.83-3.44,4.1,0,.87-3.77,2.49-1.89,1.06-2.09,2.83-1.69,2.84.84,1.89-.84,1.89-3,2.84,1.42,4.73-1.17,2.19-4.78-1.25-2.83.93-5.66,1.15-1.88,6.43-2.43,1.89-3.12,7.5-2,.1-6.61L1747,207l4.73-2.4,2.27-4.14,6.24-4.58,2.84-.6,1.89-2.07,2.84-.2,1.07-1,1-3.78,3.57-2.5,2.84,1.11,4.73-2.49,2.83-.67,1.9-1.51,1.7-3.37.19-4.72,5.67-2,.87-1.77-.3-2.83,1.53-3.78,5.22-5.66,4.17-3.77,6.61-4.72,9.32-7.7,2.84,1.76,5.67-1,2.93-1.53,1.63-1.88.8-5.66,3.15-1.89.39-3.77,2.21-3.77,4.09-3.78,4.66-2.63L1852,120l3.27-.76,1.52-1.89.41-2.82-.79-1.89,1.38-2.83,4.42-3.77,4.92-2.46,5.67,0,3.16-2.28.42-4.71,4.29-4.72,2.54-1,1.89,1,2.49-.94,1.29-1.89-.22-1.88,2.24-2.83,7.44-5.72,5.67-.38,4-1.45,5.61-6.6,4.62-3.1,5.68-2.69,2.83-3.64,1.42-5.66-.35-1.88,4-1.89,2.19-4.71,3.17-2.89,2.83-.93,1.89.68,3.28-2.52,2.3-5.66,2.93-2.63,2.84-.3,1.72-1.78,1.76-3.77,7.87-6.74,2.84.21,3.78-1.35,4.73-4.46,4.72-2.16L1983.66,9l1.68-4.72,2.37-1.88ZM411.42,772.83l-2.44.32-6.62-.63L399.29,770l2.13-1.89,7.56-.47,2.84,1.18,1.51,3.08Zm894.1,2.84-.94-.95.38-3.78,2.41-5.67,2.8-3.83,5.67-6.67,2.11,1,0,3.78.81,3.79,0,4.72-2.91,1.28-5.67,3.82-2.84.66Zm16.19,1.89h-1.65l1.81-6.62,4.37-2.38,2.84,0,.52,1.46-3.36,2.84ZM2400,131.54v19.81l-.47.84-10.4,6.95-5.68,3.55-6.62,3.5-1.89,1.61-7.56,4.2L2356,180.64l-10.4,5.88-5.77,4.45-10.31,6.38-12.29,9-4.73,4-3.78,2-3.79,3.54-12.32,9.08-3.75,2.37-12.37,9.9-1.78.94-12.92,10.38-6,4.26L2239.72,266l-7.57,7.12-4.73,3.41-2.33,2.25-12,9.44-5.57,5.1-2.84,1.8-8.51,7-1.89,2.15-5.07,3.78-10.85,10.38-4.13,4.72-6.43,5.57-2,2.93-4.6,3.75-3.78,4-5.68,4.58-3.15,1.82-4.69,4.72-3.36,2.83-9.6,10.44-2.84,2.17-4.73,5.44-1.89,1.46-4.73,5.46-6.61,5.66-4.73,5.05-1.89,1.28-7.57,7.25-9.46,9.8-4.72,4.5-5.24,5.7-2.33,3.16-18,18-4.72,5.31-4.73,4.69-6.94,8.5-12,12.56-13.73,12.94L2009,487l-4.72,5.16-3.79,3.51-3.13,2.16-3.74,4.72-6,5.67-2.39,2.83-5.21,4.72-10,11.34-8.31,8.84-2.27,1.55-1.65,3.78-7.35,6.62-3.86,5.19-3.78,3.31-4.33,6.61-1.69,1.9-6.37,5.66-2.81,3.78-3.71,7.25L1922,584l-5.68,5.09-8.51,6.3L1905,597l-7.56,6.93-4.73,4.67-2.84,3.52-2,3.78-4.58,5.68-9.62,8.5-6.38,6.62-4.81,6.68-3.78,3.4-10.4,11.39-3.48,5-4.13,4.73-5.16,4.73-7.74,9.45-2.55,3.78-7.2,7.26-6.72,8.81-4.63,5.29-6.62,8.19-4.8,6.38-2.77,2.84-2.83,4-2.67,2.59-4.78,6.62-3,2.59-2.84,3.78-3.78,3.12-3.79,5.52-2.25,1.07-1.73,3.78-3.16,2.84-1.73,2.84-3.42,3.89-4,2.72-.74,2.63-1.66,1.16-2.12,3.1-2.84.55-.33,3-2.5,3.48-2.25,1.25-.94,2.83-4.22,2.84-.84,2.84L1731,796l-1.51,2.35L1722,805l-3.36,3.78-.94,1.89-3.72,3.51-2.32,1.22-1,2.84-2.38,1.55-5.67,6.55-3.93,3.25-2.45,2.84-7.93,7.57-6.49,5.38-5.68,5.17-3.78.9-1.34-2,.36-7.57,3.34-10.41,2.37-5.67,1.29-1.89,1.87-4.73,2.8-2.84,1.14-4.73,2.22-3.78,3-6.63,4.63-4.72,1.1-2.84,2.83-3.78,1.81-4.73,4.22-3.79.94-3.78,5.22-7.57,2.09-3.78,3-2.83.65-4,2.21-2.66,2.52-1.81,1.58-3.87,2.69-2.84.87-2.83,2.57-4.73,6-4.73,1.07-4.73,5.24-5.67,2.37-4.73,2.21-1.56,2.11-4.11,3.57-3.95,3-4.56,3.27-2.84,6.58-8.5,2.6-4.73,2.54-2.21,2.84-.65,4.89,2.86.74,3.78,1.42,2.84-.72,4.72-1.6,3.05-2.84,2.53-1.35,2.93-.54,6.62,1.89-1,1-2.37,1.89-2,2.84-.76,5.9-5.15,5.17-5.68,3.91-5.67,2.16-.94,3.66-5.85,3.58-3.61,3.57-6.62,1.77-4.72,4-7.57.28-5.76-2.84,1.45-5.67,4.91-3.64,4.13-5.93,5.67-3.67,3-3.78.8-6.91-1.94-1.28-.94.26-2.84,2.25-4.3,3.79-3.32,5.91-7.5,3.56-2.84,2.82-3.78,2.84-4.69,2.83-1.48,2.16-5.17,6.94-8.51,1.68-2.83,2.13-1.89,1.28-3.1,5.57-6.36,5.77-7.56,3.79-4.29,2.83-1.38,2.84.7,1.89,2.66,2.84.91,1.36,1.4v5.67l-3,5.68-1.4,3.78-4.32,7.56,1.68,1.69,1.9-1,5.26-4.49,2.3-3,3.78-1.9,2.71-2.65,1.26-2.84,4.09-4.73.78-3.78,1.57-1.38,1.89.2,2.53-1.65.26-3.78,2.21-1.89,1.8-3.78.7-3.78,2-1.81,2.44-3.86,1.37-4.73-1-2.41-3.78,4.19-8.2,4.84-3.15,3.44-3.78,2.89-2.84.86L1851,597l-2.79-1.42-1.72-2.36.53-2.83,2.13-4.6,4.73-3.93,2.76-3.76,2.91-2,2.19-3.7,3.46-3.78,3.25-4.72,3-2.83,4.17-5.32,2.84-.33,3.78,1.95,8.51,2.88,1.89,1.56,2.84-2.89,1.89-.69v-2.19l-3.78.39-1.89-.48-5-4.33-1-2.84.24-1.89,3.66-4.72,3.35-2.84,3.47-4.28,2.84-.88,1.35-4.28,1.55-1.89,5.3-4.73,4.4-4.72,5.37-6.61,3.78-2.84,2.84,0,1.89,1.9,2.84.34,1.46,1.5-3.53,7.56-2.39,2.83L1922,529l2.83-1,1.89-1.81,3.79-.5,2.83-2.94,2.84-.52.95-3.6,3.78-3.78.43-2.83,2.41-2,4.72.61,1-1.43-1.76-4.72-1.13-1.22-5.67-1.09-5.68.14-2.4-1.61-.47-2.83.88-1.89,4.44-4.73,4.17-5.47,5.73-4.92,6.57-8.43,4.15-3.85,8-8.5,5.87-4.72,2.69-3.78,5.79-3.24,1.8.41,2.11,5.67-.32,1.89-2.64,2.47-1.53,3.19-5.43,6.61-4.39,3.87-8.51,11.17-5.08,4.8-2.41,7.56.87,2.14,3.79.17,2.83-.8,6.62-1,3.78-1.67,3.79-2.91,6.62-4,5.67-2.68,5.9-5.29,8.58-6.61,1.87-2.84L2008,467l7.35-6.06,4-4.8,4.76-4.65,2.8-2,5.16-6.51,3.5-3.77,1.41-2.84,3.6-4.72,2.41-2.29,2.34-3.38,6.71-7.55,10.8-14.17,11.27-13.21L2079,385l9.46-8.12,10.69-10.38,4.06-4.72,6-5.67,2.84-2.09,8.51-8.29,4.89-3.78,7.4-4.94,10.88-10.16,2.53-2.84,5.5-5.1,6.31-7.17,4.8-3.77,7.81-4.72,9-6.61,4.27-4.84,2.84-2.43,6.33-4.05,3.13-2.56,3.84-2.16,7.65-6.61,8.87-5.66,6.75-5.67,7.78-8.49,2.34-1.89,10.33-6.6,8.23-8,9.1-6.14,3.7-2.83,6.92-6.6,10.54-7.55,10.4-10,9.68-6,9.23-6.56,5.9-2.87,6.69-3.78,5.38-3.55,11.35-5.6,5.17-4.06,4.28-2.76L2364,158.9l2.49-2.83,6-3.78,3.92-3.77,4.21-3,4.73-4.25,5.68-4.55,3-1.37ZM321.51,903.37l-2-1.89,2.11-8.51-1.1-9.47.53-1.89,4.73-5.94,3.78,1.32,3.78-3.26,3.79-.16.94,3.47,1.89,1.19.52,2.44-2.15,3.78-2.39,2.84.53,1.89-1.63,1.89.71,3.79-1.26,2.36-1.89.95-1.89-1.3-2.84,2.33-2.84,1ZM0,904.32V889.18l3.31-2.79,2.06,1.85-1.94,5.67L2.07,895.8l.45,2.84-.58,3.79Zm317.57,18.93h-4.09l-1.58-2.84-.23-3.79,1.81-3.63,1.89-.91,2.62,3.6,1.79,5.67Zm40.62,16.08H356V934.6l3.78-2.52,2.52,1.57-.31,2.84Zm-6.89,11.36-1.62-1,1.62-2.6,1.26,2.6ZM0,858.91v-12.3l3.31-5,4-7.3.53-2.84,4-3.34,8.51-13.6L25,809.72,27.66,805l4.92-6.62L36,792.69l3.28-4.45,2.27-2.17L44,780.4l1.89-5.68,1.83-3.78,3.06-3.78,7.41-7.72L61,757.23l4.73-1.58,1.89.88,1.89,2.29,3.79,2.66,1.89,3.84,4.07,1.84-1.45-3.78,1.68-3.79-1.88-2.83,4.45-2.84-2.14-3.69-5.68,2.58-4.43-2.67-1.37-2.84.24-5.67L70.35,736l4-7.56,3.42-7.57,5-5.79,1.48-.82,2.33-3.79,2.81-2.54,1.87-3.13,5.82-7.56,2.2-1.89,1.46-3.17,10.94-12,6.08-8,1.73-1.41,3-.53,3.78,1.85h2.84l2.83.89,7.57,7.17,3.78,5.75,1,2.84-1.27,3.78,4.16,3.78,2.25,6.62.47,4.73,1.42,2.83.89,3.79,1.36,10.4-1.08,2.83,2.2,4.73-.2,1.89,1.36,10.4,1.72,4.73.51,4.73,1.67,4.73-.12,3.78,1.68,4.73.47,3.78-.26,4.73,2.12,9.46,0,3.78,1.42,2.57,2,7.83.3,3.79-.44,2.83,2.48,5.68.28,3.78,1.13,5.68-.18,2.84,1.28,10.4.19,6.62,1.31,4.73-.55,2.84,1.84,3.78,4.8,4.73,4.46,10.41.82,3.79-.14,3.78,1.6,3.78,5.34,6.31.94,2.14,2,1,.87-4.74,2.78-3.56,1.65-4,1.19-1,1.71-3.78,5.85-5.21,4.79-8,1.74-6.62,2.39-4.73,1.48-5.77,1.58-2.75,4.51-10.4,4.21-7.57,2.26-4.73,2.89-4.73,2.17-4.73,1.56-4.73,4.46-9.32,1.56-4.86,2.17-3.79,1.73-4.72,4-7.65,1.62-4.65,3-6.62,1.3-3.78.53-5.67,3.13-6.62.8-2.84L268,729.33l.93-2.83,2-2.31,6.66-11.88,2-2.83,1.52-4.73,4-7.56,2.83-9.77,2.84-1.93,2.84-3.31L301.18,667l1.66-6.71,2.77-2.84,3-5.67,2.75-7.56,1.72-2.84,2.07-5.67,2-2.83,1.26-3.78,2.46-3.78.31-2.84,4.35-6.62L330,605.5l4.36-8.51,1.09-2.83,4.62-9.45,1.57-4.73,2.83-3.78,2-4.72,5.89-11.34,3.23-4.72,5.25-8.51,1.12-2.83,4.41-6.93,4-5.35,5.35-9.45,6.71-11,1.43-3.17,6.85-11.34,2.55-3.78,3.4-6.61,5.13-7.56,10.07-12.27,3.66-5.25,3.49-6.09,3.13-4.06,7.57-12.38,4.73-4.67,4.23-6.28,6.88-7.55,3.31-4.72,3.54-2.36,8.51-7.51,1.89.14,2.84,4.7,1.89,1.25,3.05,4.72-.26,3.78,1,1.06,5.68-1.38.94,2.21L475,425.06l-2.61,5.05-3.78,1.13L468,434.5,464.78,438,461,439.2l-.64,3.8-3.14,2.31-.95,2.05L454,448.67l-.89,2.83L448.7,455l-6,.33,2.06,3.78.18,1.89L442.08,465l-2.84,1.22-3,3.22,0,2.83-2.35,1.89L432.81,477l-3,1.1-1.29,1.73,1.18,2.83-3.5,3.78-.14,2.83L422.62,495l-1.73,1.89-6.51,2.84,2.18,2.83.07,1.89-1.48,2.83-4,2.84-1.4,6.61-2.64,4-2.83,3.1-2.84,1.41-.69,3.81-3.09,2.11-2.84-1.54-.56,3.21,1.75,2.83-.08,2.84-1.11,2-3.46,2.72.33,3.78-5.25,8.51-2.69,2.83-1,2.84L380,564.87l-2.24,1.65-1.89.06L374,563.73l-2.84,3,4,6.62L373.05,577l-2.71,2,0,3.78-3.7,6.61-1.87,1.89-.13,1.89-2.77,2.84.3,2.83L360,605.5l-2.46,2.83-.55,2.84-2.24,1.89.34,2.83-1,1.7-3.23,2.09.81,3.78-1.52,1.89-.05,3.78-3.21,4.72-5.75,2.84,4.74,1.89.42,1.89-1.26,4.72-2,2.84-.85,3.78-2.65,5.67-1.61,1.89-4.32,1.89,1.6,4.73-2.88,5.67-2.79,3.78-4.25,4.73,1.17,2.84-.44,2.83-1.91,2.84-.77,2.83-2.55,4.73-3.19,2.84.17,2.83-3.71,5.68-1.54,1.52-3,1.31,1.6,4.73-.93,2.84-3.45,5.67-2.53,2.84-.37,4.72-3,3.79-.18,2.83-2.92,4.73-.75,2.84-2,1.89-.1,2.84L292.7,752l.65,1.89-1.73,5.67-1.79,2.57-1.89,1.22-.6,2.83-3.29,1.89,2.55,3.79-.55,4.72-3.29,9.46-1.56,2.84-2.71,7.57-2.84,3.42-3.78,1.4,2.76,2.74.43,3.79-.61,1.89-2.93,3.78-.14,4.73-.75,4.73-3.49,8.44-1.66,4.8L263.74,839l-.27,1.89-3.82,5.68.55,1.89-.95,2.84-.2,3.78-1.52,4.73.2,6.62-3.44,11.36v4.73l-2.92,6.62-1.56,10.41-2,2.84-1.47,9.7-4,3.55-3.55,1.15-4.25,7.36L237,928l-.26,1.89-4.59,5.81-3.78.81-1.14,6.63-1.7,3.78L222.7,948,218,952.75l-2.84.37-9.46,6.09-5.67.66-1.89,1.65-10.4.81-6.62-.28-7.57.36-3.78-1.09-2.84.31-1.89-.8-1.89-3.33-1.89-1-2.84,2-4.73-1.15-5.12-1.93-3.39-2.23-7.49-6.29L135,943.12l-5.34-3.79-.16-1.89-2.32-3.79-3.79-4.73-.86-1.89-1-7.57-1.89-.19L114,915.59l-1.47-2.75,2-1.9-1.56-7.57.78-2.83-.69-4.19-3.21,2.29-1.07-3.78L109,892,107,886.34l-1.51-7.57L103.78,875V873.1l-2-8.52,1.29-2.84-.5-3.21L101.54,857l0-2.83L100,850.39v-2.84l-1.1-2.83L98.7,840l-1.13-3.79,2.48-1.89-2.26-2.84.92-3.78-.36-1.89-2.37.29-1.76-2.18,1.16-4.73-3.14-8.52L88,803.1l2.36-4.73-3.53-1L83.27,787l-2.42-3-2.34,6.81-2.39,3.34-1.35.44-1,2.84-3.53,1L69.77,805l-2.57,1.89-2.42,5.74-2.84,5.22-3.78,4-2,1.16-.81,2.84-1.89,1-3.78,0,.28,3.73-.76,1.89L46,835.26l-1,2.56-2.84,2.91-3,.2-.5,1.89-2,.95-.15,2.84-2.88,1.61-1.22,4.06-1.62,1.05-4.73.31.3,4.32-.48,1.89L22,861.74l-.78,1.9-3.63,3.78-4.85,6-1.6-1.26,2.14-4.73.1-5.68-1.59-1-7.56,3.38-2.92-1.42ZM1667.72,976.24l-5.78.55-3.59-1.49-1.11-1.9.71-5.67,2.1-4.44,5.67-6.77,1.89-3.36,6.25-8.15,2.47-4.73,4.52-5.33,4.52-6,3.46-5.67,1.79-3.79,9.14-10.41,4.77-6.62,2.66-4.73,3.92-3.82L1719,883.5l6.21-7.56,2.38-3.79,3.35-3.78,2.57-4.73,6.92-8.8,1.89-1.64,4.94-6.59,3.24-5.68,2.58-2.84,1.68-2.83,4.58-5.77,2.49-3.69,1.84-3.79,4.82-5.67,4.09-6.35,2.86-2.16,2.94-4.73,4.72-2.84-.25-2.84,1.68-4.73,4.15-5.67,5.3-1.89-.56-3.79.91-2.33,3.59-2.4.88-3.78,2.26-2.84,3.67-6.61,1.89-2,2.67-.82,2.27-5.68,3.17-2.83,3.24-7.11,4.72-6.31,2-3.6,2.72-3.36,6.51-5.15,1.23-3.79,4.85-7.56,4.88-5.67,3.27-4.73,11.13-13.24,4.36-5.67,3.49-5.67,4.43-4.73,1.86-2.83,4.33-4.73,1.67-2.76,2.68-2,3.05-4.72,7.51-10,3.78-4.19,4.73-3.59,4.73-2.71,5.82-6,2.69-3.94,4.73-4.43,2.1-4.86,2.63-3.61,4.73-5.1,4.72-2.63,4.73-4.19,4.73-4.79,4.73-2.26,3.09-3.88,3-2.84,4.35-2.9,3.78-1.72,2.91-2,5.67-5.67,1.82-2.36,2.84-1.93,5.08-5.16,3.69-2.83L1992,557l5.5-4.46,6.8-4.5,2.83-1.36,2.84-.16,4.73.62,1.89.93,7.56,5.46,1-1-3.83-3.15-2.47-3.46-1.2-2.84-.12-3.78,1.21-2.83,5.41-5.54,2.62-2,4-4.33,6.62-4.13,9.93-11.38,2.92-3.78,5.12-5.27,6.09-7.95,7.15-6.86,2.75-3.53,3.58-5.67,2.75-2.83,4.16-5.78,3.63-2.72,5.23-4.73,11.3-11.33,1.71-2.83,3.66-3.25,5-5.25,7.33-5.51,8.51-7.27,2.26-2.33,7.6-5.67,9.88-8.5,4.85-3.62,4.73-2.34,2.83,0,3.79,2,.78,1.11.29,3.78-2.11,3.77-4.44,4.73-4,5.08-1.93,1.53-5.87,7.55-3.55,5.82-1.75,3.62-.14,3,3.78-2.49,4.73-4.19,8.51-6.19,2.24.4-4.6,7.56-8.75,8.5-8.37,8.5-12.71,13.22-4.61,5.67-7.19,6.61-3.29,2.16-2,3.51-8.43,7.65-3.11,1.79-1.23,2.84-3.86,3.77-1.22,1.89-4.77,4.8-3.78,2.14-.36,2.51-4,4.72-3.25,2.51-5.71,6.94-3,2.84-4,5.66-3.55,2.84-6.15,6.61-3.07,2.84-6.38,9.45-3.4,3.77-5.14,4.73-8.78,8.57-5.67,6.62-6.17,6.54-1.18,1.89-3,2.12-1.89,2.84-3.78,3.72-4.73,2.52-.53,2-2.31,1.83-2.84.4-2.51,2.5-.35,2.83-3.76,1.89-3.78,5.36-2.54,1.26-1,2.84-4.94,3.84-1.32,1.83-3.41,2.31L1967,634.8l-1.48,2.55-3.78,2.48-1.89,2.3-6.62,5-3.78,1.51-5.81-.59,2.4-3.78-2.26-.4-3.12,2.29-2.76,4.73.2,1.89,1.89.62,2.08,3.16.36,1.89-2.78,3.78-.63,1.89-3.76,2.69-2.76,3.93-1.12,2.83-2.73,3.25-2.47,1.48-1.07,1.89-3,1.89-2.9,3.67-2.84,1.25-1.89,2.51-3.78,1.14-3.78,1.93-3.79-.45-.94-1.49-2.92,1.84.06,3.78,3.31,4.73-.49,4.73-3.74,2.42-1,5.14-2.81,2.28-1.89.56-.69,2.83-4.41,1.89.55,2.84-2.12,1.89-1,2.84-3.65,3.83-3.78.13-1.56.77,1.28,4.72-2.56,2.55-1.43,5-2.83,1.89-1.12,2.84-6,3.78.08,2.84-2,1.89-1.12,2.83-4.49,4-1.4,2.6-2.21,1.89-.46,1.9-3,4.72-4.62,1.9-.66.94.7,4.73-2.5,1.48-4.64,7-3.27,1.89.23,3.79-1.78,2.41-2.23.42-.75,2.84-2.09,1.89-.78,3.79-2.89.94-.85,3.79-2,2.83-1.65,1-4.12.91-.73,1.89.54,2.84-1.53,1.89-.61,2.84-5.89,4.72-.79,2.84L1803,839l-2.91,5.68-3.9,1.38-1.24,1.45-.32,3.79-2.72,3.78-1.69,3.79-3,1.89-1.44,2.72-4.73,1.78.15,3.07-1.1,2.08-3.34,2.65-2,3.78-2.17,1.17-7.07,6.4-4,4.73-4.11,2.56-2.84,3.32-1.89,0-.19-2.13-2.65.74-2.84-.3-5.81,2.39-.33,1.9-2.37,5.25-3.78,1.24-.32,4.86.64,1.89-1,3.79-2.22,1.89-1.87,3.79-2.51,1.89-1.07,2.84-4.27,5.68-5.34,3-3.78.07-3.23,2.61-.34,1.9,1,2.84-.81,3.78-3.36,3.79-1,2.84-3.64,5-9.45,10-3.78,1.21-6.62,3.41-7.57,2.09Zm-1337,1-1.87-1,1.66-4.73,4.91-2.84.76-1.58,5.67-3.26,1.42,1.06L342,968.67l-5.78,5.05-2.84,1Zm555.81,33.13-11.34-3.08-4.73.56-1.89-.32-1.42-1.89.47-2.84,1.89-1.9,2.84.24,1.89-2.13,2.52-4.73,1.64-1.9,2.93-5.67-2.36-.14-6.62,4.5-5.67.75-3.79-2-.71-2.13,1-3.78L861,981l-5.67,3L853,982.87l-3.47-4.73v-1.9l3.47-5.68-.24-2.83-5-1.5-2.52-2.29,1.34-2.84,1.5-5.68,0-3.78,2.32-6.63.16-2.84,4.73-2.17,4.32-4.45,4.19-2.08,4.26-.76-2.37-5.28-3.78,1.45-4.73-.9-.44-1,1.53-6.62,2-3.79-1.15-.44-5.67,1.51-1.7-4.85L850.59,914l-1.89,7.51L843,929.08l-4.73,2.54-4.73,1.56-2.6-.47-2-7.57-.66-5.68L826,915.2l-2.83,6.63-1.89,1.82-6.62-1.92-2.84,3.6-1.89,1.07-2.7-1.26-.26-1.89-5.55-7.57,0-3.79-1.32-3.78-2.39-2.84,1-4.73,4.24-4.74,3.25-2.27,2.83-3.08,3.79-1.56,2.83-2.84,3.79-.77,1.89-1.8,11.34-5.15,13.24-3.12,6.62-1.06,1.89-1.48,5.68-.21,3.78-1.89,2.84.31,7.56-1.46,2.84-1,2.84.51,4.72-1.53,3.79-.31,20.8.54,4.12,3.59.83,1.89,5.45,4.44,1.89.8.23-4.3,1.66-3.78.54-4.73,1.06-3.79,3.51-5.67,3.93-4.73,8.93-7.61,6.62-3.36,3.84-3.22,6.56-3.6,2.81-2.08,9.66-5.67,4.55-3.85,5.1-3.72,4.7-4.73,2.17-2.84,2.22-1.6,1.89-3.37,2.66-1.65,1.56-2.84,8.07-7.67,2.19-1.78,2.54-3.52,4.25-2.16,4.26-4.41,1.89-.68,4.73-4.22,6.45-6.77,5.62-7.56,5-4.79,4.93-3.72,2.73-2.84,4.53-2.84,2.94-4.22,3.88-2.39.94-2.84,3.46-3.78,5.91-2.89,1.31-3.73,4.36-2.14,1.77-3.54,3.9-4,3.88-1.7,1.8-3,2-1.69,1.73-2.76,1.89-.83,3.69-3L1100,701l3.09-5.88,2.84-4.18,1.73-1.29,1.37-2.83,4.49-6.62,3.76-2.95,5.67-3.38,4.73-.74,5.44,3.29,2.12,2,1.9,0,1.68-2,.6-10.4-.79-3.78,1.5-3.78,3.11-2.84,1.79-5.67.4-3.78,3.82-4.73,1.74-4.72,4.11-3.72,2.84-1.76,1.89-2.14,2.84-1.42,3.56-3.25,2.11-2.67,2.84-1.08,1.18-3.81,3.55-1.93,2.17-4.69,8.23-7.65,2.84-1.12,4.72-3,1.89-2.19,3.79-1.9,3.41-4,2.26-1.35,3.14-3.38,6.44-9.45,2.71-2.26,2.9-4.35,2.78-1.58,2.83-3.45,5.68-4.2,2.84.06,7.4,6.33,1.57,3.78-1.41,3.78.71,2.84-1,4.72-1.38,2.84-.67,4.72-1.49,2.84-.61,4.72-1.25,2.84-3.83,12.28-5.78,14.18-.62,2.84-2,3.78-.38,2.83-2.54,6.57-3.16,6.67-2,2.83-.08,1.89-2,5.67-3.93,7.57-2.22,6.61-2,2.84-.56,2.83-2.68,5.68v2.83l-2.19,4.73-.74,2.84-2.35,4.72-.73,4.13-1.89,6.12-2.32,3.94-1.86,7.56-3.31,8.51L1184,736.9l-1.26,4.73-1.64,2.83-1,3.78-4,6.62-1.06,4.68-2.81,2.89-.33,3.78-1.84,2.84-1.14,4.73-1.72,2.83-2.38,8.52-1.59,1.89-1.43,3.81-3.9,7.54-.8,3.78-1.92,4.65-2.83,3.86-1.71,6.62-3.43,8.52-.58,3.78-1.25,3.78-1.36,6.63-3.16,10.4-2,3.79-1.33,5.67-3.16,8.52-2.82,12.39-.61,3.69-1.74,2.84-2.16,13.25-3,8.63-1,3.67-4.06,11.35-1.4,2.84.33,3.79-.74,10.41-2.25,9.46-2.27,6-2.84,6.38-2.31-.09.36-2.84-.92-9.46,1.34-5.68v-3.78l1-5.68,4.15-11.36-.5-2.84,1.3-7.57.55-6.62.73-4.06,2.11-5.4,1.67-7.05,1.67-3.36,4.14-16.08,1.75-5.37,1.9-7.62,1.24-2.15,3-10.41,5.28-14.19,4.5-10.4,2.42-4.73,1.32-3.79,2.46-4.72,3.82-10.41,1.52-2.84,1-3.78,5.65-13.24,1.72-2.84,5.65-13.24,3.34-5.67,3.81-10.4,1.43-4.73,4.49-11.35.93-3.78,4.13-10.4,2-6.62.86-4.73,1.82-6.61,1.94-3.78,2.78-6.94,2.84-8.38.42-3.59,1.24-2.84.29-2.83,2.71-5.68.9-4.72,2.95-8.51,1-5.67.33-5.67,1.8-3.78,1.27-4.73-1.27-3.78,1.31-4.72.27-4.73-1.37-3.78,1.72-3.78,3.43-3.15.21-4.41-1.15-.35-3.79,1.24-3.78,2.1-9,11.18-2.37,1.89-2.44,5.68-4.27,4.72,0,2.84-1.39,3.78-3.15,5.42-2.84,1.75-.64,4.17-1.6,5.67.07,3.78-1.36,4.73-1.2,7.56-1.89.71-1.89-1.65-1.1-2.84-1.74-.54-2.46,2.43-1.32,2.46-2.84,1.51-2.83.55-3.79-2.1-2.06.42-1.4,3.78-2.45,1.89-4.49,1.53-5.67,5.72-2.84.78-4,4.26-1,1.89.08,2.83-2.68,3-4.73,2.27-1.6,1.32-3.76,5.67-3.15,2-2,2.69-.66,4.73L1111.7,717l-3,1.31-2.52,3.42-5,5.29-7.56,6.24-3.95,5.49-.78,4.73.94,3.78-.94,1.58-7.57,4.38-2.92,4.44-2.81,2.84-2.78,4.73-3.78,2.4-2.27,4.22-2.46,3.4-1.89.72-2.84-.48-1.89,1.2-2.4,4.61,1,4.73-3.49,5.68-5,1.89-2.9,4.73-4.26.81-2.07,2,1.91,4.73-.78,2.21-2.84,1.26-1.89,1.94-3.78.9-1.63,1.26-.27,4.41-2.83,1.86-1.62,3.19-3.11,1.73-2.36,3.95-.1,1.89-4.16,2.83-2.84-.09-.94,2-4.73,2.83,4.73,6.63-1,1.89-4.73,3.68-6.62.81.81,4-.81,2.84-2.83,1-5.68-.62-2.36.53-.14,5.67.93,3.79-.32,2.84-7.56,3.24-2.37.54.83,4.73-.59,2.84-1.66,1.89-5.67,1.31-1.55,2.48.61,4.73-2.63,4.73-1.16,4.49L965,904l-4.73.94-6.62-.47-.94.92,2.45,3.65.39,2.84-2.19,3.79,0,1.89,1.8,1.89.93,5.68-.21,1.89-5.36,4.73-.71,3.79,1,3.78-1.89,2-3.79-.11-.94.94.4,4.73,1.49,3.79-3.78,4.73-3.79,1-3.46,1.89,2.52,4.73,2.65,2.84-.76,2.46-2.84.86-3.31,2.36-1.1,7.57-3.15,1.27L920.57,982l-2.84-2.46-1,.47-1.68,3.79.83,4.73,2.56,2.84.19,6.62-5.68,3-1.89.22-2.84-1.32h-3.78l-4.73-.76-2,4.54-1.73,2-4.41,1.74-3.15,2.37Zm-602.29,10.41H282l-3.46-1.89-.95-1.89-2.52-1.9,1.26-4.73-.63-2.84.47-2.84-.47-3.79.53-3.78-.53-3.79-1.08-2.84,3.65-9.46,1.09-5.68-.28-6.63,1.35-2.84h1.89l2.84-1.7,2.83-3.24,2.84-.74,1-2.7,1.89.72L297.4,957l1.26-2.52-4.33-3.79,2.12-3.19,2.84-2,.69-2.41-.69-3.79,5.67-5.57,1.42-.11L307.8,936l2.84-.42,1.89,1.1,1.22,2.68-.37,3.79-1.8,6.62-2.83,5.09-3.31,3.43-.85,7.57-1,5.68-3.19,7.57-3.31,4.74L295,989.5l-5.26,5.67,0,3.79-1,4.73-.17,4.74-1.44,4.73Zm401.63,23.67-1.7.69-.8-3.53,1.36-2.84,5.27-2.84.64-2.84,2-3.79,1.39-.94,1.19-2.84.13-2.84,2.08-1.9L698,1016l3.17-5.68,4.1-2.84,1.37-2.84,3.3-2.84,1-1.89,2.47-1.06,2.12-3.68,2.6-3,3.82-1.75,1.23-1.89.22-2.84,3.6-2.84,1.15-4.73,2.57-1.9,1.27-2.84,6-5.67,4.76-5,7.56-5.77,1.9-2.29,1.89-.85,1-3.15,2.22-1.89.87-2.84,2.37-2.84,1.1-3,4.73-5.56,2.67,2.92-.5,3.79-6,4-2.11,4.52-1.67,2.34-4.58,3.34-1.48,3.79-2.46,3.17-4.94,4.4-1.16,2.84-5.12,5.68-3,2.84-2.88,4.73-5.13,6.63-3.69,2.83-2.65,2.84-1,2.84-6.55,8.52-10,15.15-3.1,3.58-3.35,3-2.42,4.73-1.79,2.23-2.84,1.81-3.07,5.43Zm-410.21,32.19,1-3.31,2.83-2.37,1.42.95-1.42,2.08Zm479.91,18.94-3.31.48-3.79-2-1.31-3.2-1.95-10.42-.52-4.73.21-5.68,1.15-4.74,2.42-3.72,7.68-7.64,2.73-.93,2.83-2.27,2.84-.59,1.5,2.84.36,3.79,1.71,3.79-1.42,5.68,1.53,2.84,1.33,5.68-1.54,7.57-2.77,5.69Zm-649.18,1h-2.52l.63-3,1.89.16,1.42-3.79-2.36-4-1.89-1.39-.63-2.21,2.52-2.84,3.15,1.9.9,1.89-.27,6.63,1.89,3.79-1.89,1.89-1.89-1Zm-67.45,11.36-3.47-.23-1.89.8-3.78-.57L24.11,1106l1.89-3.79,1.9-2.37,2.83-1.65,2.84,1,4.73-1.21,5-3.32,1.58-1.89,2.12,1-.1,6.63-1.08,2.84-3.78,4Zm190.86,14.21h-1.42v-4.74l-2.84-3.15-.75-3.48,1.38-4.73,3.15-2.27,3.79-1.76,3.07,2.13-.24,3.32,1.89.47,2.84-.94,1,1.42,2.83-4.9,6.62-1.07,6.62-5.87h1.89l-3.78,9.78-1.89.4-3.4,3.08-.95,5.68-2.27,3.79-1.89.31-.63-2.21-2.21-1.89-1.89.71-1.89,5-4.89-.95.7-2.84-2.67,1Zm-12.3,12.31-1.41-1.89,1.26-2.85,1.57-1.18,1.89,1.66,1.9-.48v3.79h-3.79Zm79.28,2.84-2.21-2.84-.35-1.89.84-2.85-.42-3.78,1-8.53,2.06-4.73,3.52-4.74.51-3.79-.72-3.78,1.16-3.79-.48-7.58,1.82-6.63,1.71-3.78.92-5.68,2.65-9.85,1.89-4.1,1.26.69.49,7.57-.84,2.85-.41,15.15-.91,3.78.14,2.84-1.36,4.74-.61,10.42-2.15,3.78.53,6.63-1.42,4.74,1.35,2.84-.8,2.37-2.84,1.94-3.78,6.44Zm729.75,9.47-1.93-.31-1.3-3.48-2.61-4.73-.22-3.79,1.13-5.68.25-7.58.55-5.68,1.25-3.79,1.89-2.84,5.68-4,7.56-2.47,5.67,5.61,3.63,1.76-.21,3.78-3.08,8.53-5.38,7.57-3.35,6.63-2.46,3.79Zm-732.9,9.47-2.84-.31.25-3.47,1.64-.95,5.68-.63v2.84Zm-226,1.9-2.56-1.9-.14-9.47-1.08-3.79-.68-5.68-1.78-5.68-3.21-2.84-1.9-.57-1.89,1-1.57-2.37-3.15-.63L48.23,1123l1.65-2.85-.47-3.78,2.13-2.85,2.83,1,2.84-.79,3.78,2.53,1.89,0,2.84,2.65,2.84,1.56,4,8.29,3.54,3.15L82,1141l.17,2.84,1,1.9-.48,2.84-1.32,1.89-8.13,5-2.84,2.12Zm2284.73,4.74-3.88-1-1.89-1.8.34-3.79,4.39-4,3.78-1.05,4.32,1.28,1.83,1.89.09,1.89-2.45,2.76-2.84,1.25ZM1962,1192.14l-2.21.33.09-5.07,1.89-11.36,3.88-4.74,3.75-7.58,9.3-6.73,7.49-4.63,5.21-5.69,3.32-4.73,10.28-9.47,2.59-4.74,3.84-4.73,1.88-3.79,2.67-3.79,2.44-2.31,4.47-6.21,5.88-6.63,3.3-4.74,7.34-9.47,5.1-8.52,2-2.84,3.15-2.84,3.69-4.74,3.23-2.84,5.24-7.57,2.59-2.84,1.27-2.4,4.32-4.23,2.93-4.73,5.43-7.58,4.34-4.76,7.57-9.14,2.46-2.19,4.16-5.53,5.07-3.94,9.11-11.44,5.67-6.32,4.73-3.44,3.79-4.54,7.37-6.44,2.08-2.5,3.78-3,2.84-3.39,4.73-3.79,2.49-2.51,9.8-8.52,7.57-9.91,4.73-2.59,4.72-4.21,7.57-8.4,2.84-1.85,3.33-3.32,4.23-9.21,1.42-1.2,12.77-6.4,5.67-1.89,4.73-2.37,3.78-1.08,4.59,5.11.18,2.84-2.32,5.68-1.51,1.79L2218,919.2l-1.29,4-2.5,3-5.67,2.44-1.32,1.19-.65,3.78-3.7,2.45-4.73,5.17-6.62,3L2189.6,946l-1.89,4-4.73,4.48-1.89,2.54-3.78,1.63-1.58,1.5-2.21,4-3.78,1.65-3.78,3.79-4.31,2.84-1.16,2.84-3.58,2.84-2.3,2.84-5,2.84-2.05,3.78-4.26,3.45-3.61,4.12-2.06,1.51-3.67,5.12-4.84,2.84-2.79,4.73-6.43,4.74-3.17,4.73-2.16,1.89-5.31,6.48-3.78,3.64-1.89,1.05-4.73,4.93-5.68,7.89-4.89,3.47-2.73,4.73-2.08,4.74-7.32,10.51-4.2,2.74-1.47,3.43-5.54,5.09-1.79,4.74-5.91,5.68-1.89,5.28-3.09,2.3-2.92,4.73-3.1,2.84-3.92,6.63-2.36,4.74-3.69,2.84-4.23,6.63-1.43,2.84-9.7,13.26-4.33,3.42-1.89,3.21-3.79,3-2.83,4.52-1.89,1.49-3.79,4.42-6.11,5.52-2,2.84L1987,1176l-3.38,4.73-3,2.33-2.83.51-3,1.9-3.66,4.4Zm-1455.5,8.53h-2.13l4.83-7.24,2.84-2.71,1,.47-1.92,3.79Zm483.55,37.89-1.42.68-1.89-3-1.89-.6-4.73.06-5.67,1.42-5.68-1.69-1.51-1.62-.38-3.79.51-3.79,2.54-7.58,3.36-8.53,5.81-10.42,5.72-7.58,3.77-3.79,4.77-6.63,3.78-4.63,2.84-1.74.56,1.63-2.65,5.69-1.69,4.73-2.11,3.79.39,1.9-.9,4.73-3.17,5.69-.6,3.79,1.66,1.89-1,4.11,2.84,1.1,1.89-1.15,5-1.21-.49,5.68,2.45,5.68-.1,1.9-3.05,2.53-5.67,6.19Zm-18.44,39.8-1.57-1.89,3.46-3.7,2.23.85-1.28,3.8Zm25.66,6.64-.27-2.85,5.82-15.81,1.14,2.55-1.62,6.63-3.31,7.62Zm-941,9H.47l-.47-.47v-13.27l2.89-1L0,1272.68v-2.85L6.15,1267l-1.89-1.68L0,1265.1v-29.38l2.71-2.84,1.7-2.84-2.05-1.22-2.36.27v-83.36l2.21-1.9V1141L0,1139.1v-58.72l2.77-1,1.83-4.73-.52-2.84-3-2.84.16-3.79,3-1.42.27-1.42-2.46-4.73,1.31-2.84.4-5.69,1-2.84,4.25-8,1.4,2.36-.39,2.84,2.28,5.68-.25,3.79,1.13,2.84,0,2.84-.94,3.79,1.06,2.84-.12,3.79-1.54,1.89.62,4.74-2.82,2.84-.19,2.84,4.09,2.84,1.59,2.84,3.77,3.79L17.49,1094l-2.83,1-1.89,4.9-3.22,3.25-.41,3.79.79,2.36,1.58,1.42,0,2.84-4.4,5.82L5.2,1123l1,.65,3.07-3.5,1-2.84,3.36-2.84.55-2.84,5.29-4.73,2.67,1.89,1.11,2.84-1,1.58-3.78-.63-1.05,1.89,3.57,2.84.63,2.84h1.58l.63,4.74-1.58,5-1.65,2.53,1.8,2.84.8,8.88,2.83-.63,1.9.65,1.89-2.11,5.67.78v1.9l-2.84,1.66-1.35,4-2.43,1.9-.94,4.73L26,1159.3v2.26l2.84-.11,3.78,1.48,2.84,2.45,2.84-1.25,2.83,1.07,2.84,3.26,2.08,4.73-1.81,1.9.68,4.1,2.83,3.29,2.84,1.13,1.66,3.79-.71,1.9-2.84,1.89L47.19,1195l-1.33,1.29-4.73,1.24-4.72-3.79-.68,1.26.3,3.79-.88,1.9,1.26,1.89,5.67-.35,5.13,3.19,0,2.85L45.65,1213l-4.25,6.63-3.1,2-7.57,1.17-.47,1.58.95,2.84,1.41.38,3.79-1.17,1.89,1.43,4.73-.36,2.83-3.59,4.73-2.1.95-1.22-.42-3.79,1.36-2.13,3.78-.24,1.76,2.37.33,2.84-1.77,2.85-.95,5.68.87,2.84-1.18,1.61-3.26,2.18-1.47,2.69-4.1,3,.91,2.84,3.19,2,3.31-.1.47,1.89L52,1249l-.47,3.08,2.83,3.55,1.89-.47,1,3.31v2.85l3.07,3.79-.23,1.51-2.84.38-1.89,2.21-1.89-1.47-4,4,.16,4.74-2.79,6.63,1.89.86,1.89-1.15,4.73,2.78,2.84.22,1.89-1.29,2.08,2.37Zm214.66,0h-52l1.38-5.21,1-1.9,3-2.84,2.41-6.63,2-1.9L234,1266l4-3.79.93-7.58,1.16-2.84L240,1249l2.75-6.64,1.94-2.84,4.49-4.5,8.51-4.34,2.84.08-.77-2.61.49-1.89,3.71-2.85,1.3-2.84-.57-2.84.7-4.74.81-1.89,3.79-3.39,3.78-.19,1.89-4,1.89-2.53,1.89.48,8.51-6.37,2.65-2.95,2.08-3.38,4.46-5.15,5-1.6,1.89-1.13,1.2,2.73-2.15,3.79-8.34,7.58-4.9,4.9-1.47,2.68,1,2.84-.47,1.9-3.55,1.89-.23,1.9,4.28,1.89-.05,1.9-3.84,4.73-1.27,5.69-4.69,7.58-2.94,2.37-3.79,1.3-1.62,3,3.51,2.84.95,3L278,1249l.32,3.79-1.91,5.68-.5,5.69-2.63,3.79-.88,3.79,3.24,3,1.89,3.6-.79,1.9-7.84,7.58.12,1.9,1.89,2.36Zm72.82,0H293.62l.71-3.32,5-6.39,2.16-2.14.44-1.89,4.29-8.53.2-11.37-2.83-2.84.47-2.66,2.84-.46,2.16-3.52-.87-4.74,1.26-4.73,2.58-2.85-1.27-2.84,1.53-6.63,1.61-4.74.56-3.79,3.11-5.68,2.09-4.74,4.1-1.89v-3.79l1.27-2.85,5.52-2.48,1.52-2.25-.19-2.84,1.71-6.64,1.61-1.89,2.28-1,5-7.58,4.16-8.64,4.35-2.72.15-2.84,3.75-5.69.77-2.84,2.11-2.84,2.71-6.63,1.5-4.74,0-2.84,1.13-2.84,2.52-1.89,1.1-1.9.37-4.73,1.38-3.79.83-5.92.94-1.8,3.31-3.65,2.29-3.78,1.34-3.79,2.52-3.79,2.93-1.89-2.11-5.69-.06-2.84.86-2.84,2-1.89.57-1.9.32-9.46,1.73-5.69,3.26-7.41,2.36-3,4.25-2.5,3.52-1.29-.71-2.84-.79-6.63-1-2.84,2.49-5.68,1.62-1.89,2.16-7.57,4.46-3.79,1.72-4.73-.4-4.74,2-4.73,2.38-1.89,2.58-3.79,2-4.73,2.78-1.9,3.17-3.78-.23-2.84,1.55-3.79,3.87-1.89L426.85,980l-.06-1.89,1.43-1.9.94-5.68,5.28-10.41,3.41-2.84,2.34-4.49,7.11-5-1.77-3.78.43-2.84,4.22-9.47,3.38-3.78,5.12-2.84-.6-2.84,2.34-4.73-.43-3.79,2.66-5.67,3.14-3.79,4.53-6.62,2-.29,3.78.76,1.56-.47-1.56-3.79,1.1-3.78,2.94-4.73,2-1.9,1-2.83,3.45-3.79,1.61-2.84,4-4.77L496,866.8l2.84.94,3.48-6.94.79-3.79,7.08-9.73L514,845.7l3.68,0-2-2.84-.76-2.83,2.39-8.52,1.4-2.62,2.83-3.05,2.7-3.79,1.86-.94.91-5.68,4-8.51,5.39-7.57,4.07-2.38,3.78-.81,3.33.36-3.07-6.62,0-1.9,2.09-5.67,4.6-6.62,5.36-6.22,5.68-3.24,1.23-1.89-1.64-4.73.64-4.73,3.23-7.56.84-2.84,3.26-6.93,4.47-6.31,5-2.83.21-4.73,1.61-3.78.44-2.84,2.24-3.78,2.34-1.89v-4.73l4.89-7.56,2.56-2.84,3.21-4.73,1.3-2.83,3-4.49,3.78-2.7,5.12-.37-1.18-4.73,1.24-5.67L614,664.1l3.28-2.84,2.53-4.72,6.05-3.78-1-3.78.5-3.79,4.29-8.5L633,632l2-1.57,2.83-.92,6,.6-2-3.78-.69-3.78,2.19-4.73,2.05-5.67,5.53-6.61,2.68-4.73,4.12-1.95,5.09.06-3.47-4.72-.38-4.73,4.31-9.45,2.52-2.83,2.34-4.31,3.78-2.44,2.83,1.19,1.58-3,5-1.27-.11-3.45-2.72-.79-2.62-3.93.19-2.84,3.71-5.67,1.55-4.72,5.25-7.56,1.27-2.84,4.83-6,2.84.71.94-1.36,2.75-.94-.06-1.89-2.06-1.89-1.33-3.78,1-1.89,4.83-3.78L703,512.9l-6.57-.66L694.1,511l-1.32-3.78.27-3.78-1.45-3.77.74-9.45-2.47-1.89,1-2.83-5.24-1.89-.48-3.18-1.89,0-2.43-1.53.21-2.83-3.57-1.89-.68-3.78-1.22-1.89,0-4.72,1.13-2.83,1.77-9.45,2,0,2.84,1.68,5.67.44,3.83,3.52.9,4,2.83-1,1.9,5.57,2.83.15,4.07-2.15.66,2.21,1.89.36,5.68,4.54-.18-4.27L711,463.78l1.55-1.89-3.76-2.83-2.86-3.87-2.84-1.46-2.83-2.46-1.77-2.6L696.72,444l-5-3.36-7.31-3.25-4-2.44-1.53-2.29.58-4,5.68,4.69,3.78,1.31,10.4-2.1,6.62,1.34,2.84,1.21,2.6-.54,6.49-3.77,7.93-.13,1.44,1.07,1.4,3.38,1.89,1.21-.43-5.53,1.37-5.08-2.83.75-3.79-.46-2.72-1.82,2.72-3.29,1.07-5.21-2-.22-.4,2.11-3.39,2.81-1.89.2L716,418.45l1.68-6.61L715,413.73l-2.46,5.06-1.26-2.23.66-2.83-1.29-1.89-1.89-.14-10.4-6.22-8.52-12L686.4,393l.37-4.72,1.65-2.83L687,383.55l1.89-1.49,1.55-3.27,2.15-2.83-1.49-3.78-.85-3.77,3.63-3.78,1.3-3.78,0-3.77-2.64-5.67.32-2.83,2.09-2.83,3.34-2.84,2.85-7.55.17-5.66-1.33-3.78,2.76-6.61-.47-6.6,1.38-2.83-.22-4.72,1.2-4.72-1.52-2.83.76-6.61,3-3.55.94-2.82.42-5.9-.89-6.61.26-1.89,2-3.77.76-3.78.22-4.71,1.82-6.61.82-7.55-.24-4.72-.72-2.83,2.27-8.49,3.63-7.55L725.3,208l2-5.67,1.53-1.88.42-5.66,6-7.55,2.26-3.78,2.05-5.66,2.4-9.43-.47-6.6,5.23-6.61.81-2.83,3-2.83.75-2.83,2.38-2.83.57-1.88,3.1-4.72,3.06-5.66,2.26-.7-4.73,10.35-2.06,3.56-1.3,6.6L754,158.9l1.13,7.54-.44,5.66-1.5,3.78L749.45,191l-3.92,7.55L743.89,207l-3,9L739,217.92l-2.22,5.13-.12,3.78-.83,3.77-2.26,5.66-2.69,10.38-1.28,2.83-2.44,10.38-.65,9.44.42,16-.42,5.66-.93,4.72-1.12,9.44-1.92,12.27-1.16,3.77.73,1.89-2,5.66-.87,3.78-1,7.55-.39,5.67.35,3.21,2.84,5.38,3.78.3,4.73-3.58,4.11-4.37,3.73-4.72,7.29-7.24,1.89-2.47,8.51-7.5,8.51-6.39,6.62-4.36,9.93-3.19,3.31-1.52,4.62-.37.51,3.78,2.31,6.6,3.53,6.61,1,4.72-1,2.83,3.16,4.72.86,3.78,1.9,2.83-.56,3.78.87,7.55-.33,2.83-2.25,4.72,1.91,4.73-1.07,8.49-2.86,4.72.76,2.84-.27,3.77-3.12,6.61-2.3,2.84.43,4.72-2.35,5.66v2.83l-1.57,2.84-.86,3.78-3.31,7.55-.68,3.78-1.92,2.83L778,437.34l-2.06,5.17L774.33,444l-1.28,3.78-2.52,3.77-1.26,4.06-2,2.55-1.89,7.56-2,5.67L760.76,477l-1.5,4.72-2.78,3.78L744.68,513l-3,2.69-.91,1.89-2.38,9.45-1.26,2.4-2.84,2.6-7.94,16.73-8.14,14.55-3,10-4.35,9.45-.68,2.83-1.8,3.78-2.46,3.18-4.69,8.16-1.09,2.84-2.73,3.71-1.89,1.4-2.29,3.39-2.44,4.73-1.73,1.89-3,5.2-4.73,5.35-1.89,3.26-3.89,4.15-3.7,5.67-2,4.72-4.39,7.57-.29,2.83-2.73,4.73-.76,3.78-2.32,7.56-4.66,8.51-1.57,3.78-3,3.59-3.78,5.45L640.9,701l-1.7,2.83-5.68,7.57L630.8,717l-4.5,7.57-2.36,5.67-1.81,2.84-1.85,4.72-3,5.68-3.8,4.72-1.3,3.79-2.68,4.73-1,2.83-2.79,3.22-3.28,5.29-6.17,7.66-3.47,5.58-2.21,2.58-3.78,6.53-2.84,2.64-1.89,4-3.78,4.47-2.36,10-.78,1.89L573.05,822l-3.49,9.46-.08,2.84-1.16,3.78-.47,3.79-2.24,3.78-.34,2.84-1.63,3.78-2,2.84L561,858l-1.44,1.89-.55,2.84-2.46,2.68-1.92,3.94-.74,2.84L551,876.88l-2.19,1.89-2.66,5.68-1.95,1.86-2.28,4.76-2.56,2.84L538,896.75l-2.58,1.89L534,902.43l-2.05,1.7L527.66,910l-2.2,1.89-1.27,2.84-2.33,2.84-.9,2.84-2.91,3.78-.92,2.84-2,1.89-.52,1.9-3.89,5.67-.63,2.84-1.86,2.43-5.67,10.51-1.74,2.21-2,5.2-4.12,6.15-1.43,3.79-3.91,6.06-2.64,5.3-1.88,2.84-1.57,3.78-4.86,8.52L476,999l-1.58,4.73-5.15,6.63-.11,2.84-4.5,10.41L459.47,1034l-1.8,2.84-3.5,7.57-1,3.79-5.94,10.41-2.9,6.63-3.17,5.12-5.94,7.19-1.67,2.84-1.23,3.79-2.13,2.84-1.15,2.84-6.25,10.42-2.43,2.63-1.08,5.89-1.58,4.73-2.13,3.79.21,4.74-2.11,6.63-1.82,3.63-1.5,5.84-4.22,10.42-6,11.36-1.15,6.63L395.22,1177l-5.29,10.42-2,2.85-5.28,13.26-5.53,10.42-1.89,4.74-.55,2.84-3.53,3.25-2.8,4.33-1,3-2.37,2.67-.58,2.85-2.27,2.84-1,2.84-3.45,4.74-.27,1.89-1.79,2.85-3.76,7.58-2.34,5.68-.1,4.74-2.46,8.53-.58,3.79Zm202.36,0h-9.46l-.86-.47,8.43-12.32,2.69-5.69,3.93-3.76,1.87-2.87,2.47-1.9.88-2.84,4.39-3.79,2.74-6.63,2.82-1.9.9-4.19,4.15-4.34,4.78-8.53,2.77-3.79.7-1.89,3.53-5.69,1.34-3.79,3.57-4.73.68-4.74,3.07-5.5,2.92-4L598,1195l4.86-9.47,2.57-2.84,1-2.84,3-1.63,3.78-1,4.52-2.12-2.63-5-.5-2.56.6-5.68,2.74-6.1,4-5.27,2.09-3.79.74-2.84,1.65-1.89,1.88-7.58,1.83-3.79,3.44-4.73,3.24-5.65,4.64-6.67,3.18-2.84.69-1.89,2.09-1.89.39-2.85,1.5-1.89-.25-7.58,1-3.47,3.27-6,4.86-7.58,5.11-3.54,2.83-2.81,2.67,3.51-.19,1.89-2.65,3.79-2.75,7.58-5.62,10.41-2.8,4.51-1.89,1.83-2.34,6-1.45,6.23-3.86,8-.49,1.89-4.23,9.47-.87,3.25-2.57,4.33-3.11,7.74-2.83,5.52-1.66,1.9-.55,3.79-2,5.68-5.92,12.31-5.18,5.69-.64,5.68-6.14,9.47-.7,2.85-2.44,3.79-1.66,3.79-3.32,3.78-2.14,3.79-3.63,4.74-2.68,6.63-3.94,5.62-5.79,5.75-2.65,4.74-5.17,5.69-1.73,2.84-4.52,4.59-4.44,5.83-5,7.37-2.22,4-3.64,4.73-3.6,6.59Zm268.56,0H580.14l.61-3.32,3-1.89-.7-2.85.38-4.73.9-3.79,3.38-7.4,5.2-6.82,3.78-5.68.69-1.9,2.38-13.27,1.92-5.68,3.05-3.26,5.67-2.86,7.57-7.25,2.83-2.26,6.62-2.58,7.57-3.73,7.56-3.17,8.51-1.42,5.68-1.56,6.38-3.18.52-1.89,2.15-2.84,4.19-7,5.67-5.41,5.83-8.45,4.57-4.61,2.08-1.08.84-3.79,1.7-2.84-.06-1.89-2.55-1.9L686.5,1158l-1.5-7.58-1-2.84-1.63-10.42.75-3.79,2.38-5.68,5.23-3.88,4.73-1.91,1.6-1.79,2.27-6.63,3.1-5.68,1.72-1.89,1.71-4.89,4.2-3.63,3.53-1.9.61-4.73,2-1.9h3.94l.64,4.74,1.89,4.73,3.74,4.74,1.89,3.79,2.84,8.52-.1,1.89-4.57,6.63-1.68,1.78-1.33,3-5.52,6.63-1.42,2.84-5,7.26-1.57,4.1.63,3.79,2.78-3.79,3.84-3.25,1.89-3.29,5.67-4,5.68-3,.86,1.22.32,4.74-.75,4.73.56,1.9,3.73,4.16L739,1159l-.25,5.68-1.7,2.84.28,1.9-2.15,9.47,3.79-1.51,4.73-3.29,3.78-3.57,1.89-.39.94-2,4.73-1.9,3.79-2.32,1.89.54.94,3.14,2.39-1,1.39-2.07,5.68-.61.91.79,1,4.51,2.16-.72,5.4-4.11,4.73-.73,2.67,2-1.49,2.84-.66,8.52-.82,3.79,5,3.79,1.2,1.9.25,4.73-.5,4,4.72,5.16,1.9.45,3.64,4.65,1.32,2.85-.33,3.79,1.33,4.73v2.84l2,4.74.71,4.74,1,2.84-.49,6.63,2.27,2.85.88,2.84-2,5.68,1.84,2.85-.55,3.79,1.2,5.68,2.48,4.74-.36,1.9-2.34,2.84,2.2,1.89-.13,1.9-1.89,2.84,1.5,7.58,2.24,3.8Zm156,0H942.32l4.72-11.91,2.57-4.67.74-2.85,2.76-6.63,3.39-13.11,1-2,4.64-4.08,1.42,7.87.95,1-.76,3.79.66,3.79-2.52,7.58-1.89,2.84,1.2,2.84,5.67,1.9.53,2.84,2.73,4.74Zm24.58,0h-.94l-.59-.47,1.53-5.49,1.21-.2-.26,4.39Zm31.21,0h-4.73l3.66-12.79.92-4.74,2.32-7.58.35-2.85,4.91-17,2.68-7.58,1.94-9.48,1.13-9.47,1.73-5.69,1.39-6.63,2-4.74,1.49-7.58,3.8-11.36.35-4.74,2.39-6.63,2.5-9.47,2.42-6.84,1.37-6.42,2.45-9.48.91-6.42.86-2.1,1.78-9.47,2.22-7.58,2.71-6,1.19-4.45,2.33-4.74,1.56-10.42,1.28-4.73,1.94-4.74.93-4.73,3.06-10.42,2.07-5.68.1-2.84,1.07-3.78,1.13-6.63,1-2.84,3.17-6.63,3.14-12.31,5.19-23.66.52-4.74,1-2.84.32-3.78,2.1-6.63,2-10.22,1.9-.76.13,3.41-1.32,3.79.48,4.73-1.11,9.46-2.55,11.36-1.2,6.63-1,3.6-2.46,4.92-1.13,6.63-2.8,7.57-.69,14.2-.78,3.79-1.79,4.73-.45,4.74-2.41,7.57-1.25,6.63-3,7.58-1.07,7.57-3.31,10.42-1.11,5.68-1.65,5.68-2,4.74-.66,4.73-3.13,10.42-.64,5.68-1.42,3.79-2,10.42-2.69,7.58-.74,4.73-.22,10.42-.87,3.79-3.32,6.63-.85,6.64-2.58,5.68-.72,5.68-2.72,7.58-1.83,3.79-1.3,4.74-2.71,5.68-3.34,5.69-.34,4.74-2,5.68-.46,3.79-3,12.19-3,7.71-2.19,10.43-2.31,6.63-1.92,3.79Zm199.52,0h-85.1l.94-6.84,2.33-9.74,2.87-4.74,3.31-3,5.68,1.26,2.84,3.72,2.55-5.72-7.28-2.92-1.89-1.82-1.07-4.74.26-2.84-.6-3.79,2.9-16.11,1.3-2.84,1.63-5.69,4.74-13.26,2-7.58.58-5.69,2.24-7.57,2.47-6.64,2.45-9.47,1.14-6.63,1.64-6.63,1.65-3.79,3.41-10.42,1.16-6.63,2.74-11.36.14-2.85,4.94-13.25,2.38-9.47,2.07-4.74,2.29-9.47,3-6.15,3.65-10,3.5-6.62,2.3-6.57.21-6.69,1.42-8.52,1.22-4.74.32-6.62,1.49-4.74,1-5.68.92-10.41,3.78-8.74,2.32-9.25,1.42-2.84.22-2.84,1.55-2.83.6-7.58,1.46-3.4.63-3.22,4.55-12.31,1.62-11.35,2.66-5.92,1.89-2.6,1.89-1.11,3.78,1.11,1.82,2.84-.42,6.62.68,2.84,1.7,3.37,1.89,1.57,3.52-8.72,1.16-4.74L1254,945l-.46-4.73,1-4.73,1.73-4.8,1.21-1.83-.23-2.84.44-5.67-2.36-.75-3.78,4.67-6.15,6.49h-2.86l-.69-6.63,2.15-6.62,1.42-6.63,4.69-10.4.49-2.84,4.42-10.41,5.16-17,3.73-7.57.63-3.78,7.83-18,.72-2.84,4.27-8.51,4.81-12.3,2.47-4.69,4.73-7.27,1.89-1,.9,4.41-.81,1.89.37,5.68-2.65,8.51-.32,3.79-1.27,3.78-.43,5.67.43,3.55,1.89,1.18-.65,2.84-1.48,1.89-.11,2.84-1.89,4.73-3.79,12.3-.91,4.73-3,7.57-.17,2.84-3.52,6.62-1.1,9.46-2.4,3.79,1.91,5.68.37,2.83,1.65,1.52,1.89-.48,4.73-2.93,2.84-3.24,1.89-3.7,2.78-10.09,4-7.57,3.4-8.51,2.08-2.75,3.78-8.9,4.73-8.22,5.68-3.69.85-2.93,3.37-3.79,2.4-.66.58-5,3.44-6.63,2.6-3.78,1.89,0,1.33-1.93-1-2.84,1.07-7.57,2.12-1.89,3-4.73.23-9.46,1.37-5.67,1.86-1.89.48-1.89-.67-2.84.81-3.78,5.17-12.3,3.16-2.49,2.67-6,4.89-5.65,1.9-1,2.83.34,4.73,2.53,1.89,2.07,9.46.73,2.83.8,8.52-.46,4.72.38,3.79-.36,1.23,1.57-.65,6.62-3.8,9.45-1.93,6.62-1.28,2.84-2.5,7.57-1.31,5.67-3,4.55-1.72,5.86-1.82,3.78-4.69,6.62-1.4,5.68-2,2.83-.57,5.68-.73,2.84-3.14,4-1.17,3.59-.53,6.62-1.14,5.08-2,5.32-3.21,3.79-1.23,6.62-2,2.84-2.43,8.52-3.63,2.83.67,3.79-2.1,6.62-2.84,4.73-.57,4.73-1.44,1.9-3.61,2.84-.57,2.83-2.87,5.68-1.2,4.73-3.61,4.73-2.36,5.81-1.93,2.71-.39,2.84-3.27,8.52-3.57,5.68-8.18,9.46-.44,3.79-2.4,5.68-2.52,3.15-3.78,1.19-1.89-.37-3.15-3-.78-1.89,2-7.57-.69-3.79-1.41-2.84.49-7.57-1-4.73.64-7.57-1-4.73-1.82-5.68-.23-4.73-2.47-2.17-4.41,6-3.81,6.63.14,7.57-.5,4.73-1.62,5.68-2,4.73-3.9,6.86-3.79,4.85-4.72,6.79-5.09,3.27-1.24,3.79-2.64,1.89.59,2.84-1.12,2.84,1.84,3.78,3.24,2.84,2.27,5.68-1,7.58-.19,8.52.74,3.78-.34,2.84,1.94,5.21,1.58-.47,1.57-7.58,3.12-5.68,2.24-2.06,2.84-1.06,4.94-11.08,3-3.78,2.49-2,3.78-1.74h3.24l3.38,1.58,2.64,3.15.2,3.79-2.5,2.84-.69,2.84.86,2.84.23,4.73-.69,6.63-1,3.79-3,4.73,1.37,3.79-.38,4.73-2.33,9.47-.05,3.79-2.19,7.89-3.58,1.57-.41,1.9,1.22,8.52-.83,8.52-1.79,3.79-1.23,1.15-2.84.47-1.53,1.22,1,5.68-1.2,5.68-3,2.85-1.75,2.84-.59,2.84-1.44,1.08-3.78.63-3.79-.2-1.07,1.33,3.41,4.73,1,3.79-.4,1.9-5,3.78-2.21,4.74-2.92,4.74-.74,5.68-2,2.84-7.93,1.89,4.59,3.79,1.15,2.84-1.14,6.64-3.07,3.78-1.3,4.74-1.34.79-5.67-.52-5.68-3.56-4.18-1.45-1.92,1.9,4.21,3.61,2.84,4.76,4.15,3.94.74,1.9-1,3.79-2,4.29-3.78,5.81-3.78-.63-4.73.2-5,3.59-1,2.84-1.94,1.9-5.31,3.61-1.89-.13-2.79-3.48-1.81-6.64.24-2.84-1.32-3.43-1.94,5.33-3.91,5.68,2.64,4.74-3.72,2.84,1,2.84-1.24,1-2,3.79-.2,2.84-1.92,6.63h2.29l4.64-9.47,4.3-3.66,2.88,3.66.91-4.35.94-.53,4.73.21,2.84-1.39,3.78-.91,4.73-2.87,1.89-.26,3.21,1.57,1.07,1.9-2.39,2.7-4.73.82-3.42,1.21-1.31,1.9,3.79,1.59,6.62,4,1.48,2.91.32,3.79-2.23,4.73-.13,3.79,1.08,4.74-.24,2.84.86,3.79-1.17,2.85,2.07,3.79.34,1.89-1.85,4.74,2.41,5.69-.17,2.84-3.87,5.69,1.31,1.89.56,5.69-.45,1.89-2.08,2.85Zm252.49,0h-1l-.2-3.32,3-8.53,7.65-15.16,5-11.37,2.45-4.74,5.42-12.32,2.21-3.79,1.91-4.73,3.6-7.58,3.73-6.64,2.16-5.68,3.81-6.63,1.65-3.79,4-7.58,6.77-11.37,4.79-9.47,3.72-5.68,7.87-10.42,1.75-3.79,4.45-5.76,5.12-8.45,2.45-3.24,3.69-6.23,4.82-6.47,4.73-7.77,2.11-2.81,4.65-7.57,2.44-2.84,5.76-11.37,4.67-6.63,3.46-6.62,7.82-16.1,2.41-3.79,3.47-8.52,5.16-7.57,1.89-3.79,5-8.52,2-4.73,2.55-4.74,1.44-4.78,3.78-6.66,4.09-5.6,4.92-8.52,6.12-7.49,1.9-1.41,3.78-.78,3.22,2.11.88,6.63-1.19,8.52.33,3.78,1.41,4.74-3.26,5.68-.4,3.78-2.78,3.79-2.84,1.89-1.1,2.84v5.68l-2.36,3.79-1.41,3.79-2.46.94-.75,3.79-3,1.89.43,2.84-1.3,4.74-3.5,2.84.72,3.79-1.47,1.89-3.41,1.89,0,3.79-3.27,2.84-3,3.79-.67,2.37-4.73,4.26h-2.16l-.58,1.89,1.33,2.84,0,2.84-1.71,1.9-.82,2.84-1.76,1.89-1.07,2.84-3.58,2.43-1.4,2.31.79,3.79-1.73,1.89-.89,2.84-2.51,3.79-2,1.89-.65,2.84-10.54,11.43-2.84.81-1.17,2,0,2.84-1.71,3.09-8.51,4.14-1.12,1.3v4.73l-.65,2.84-2,1.44-1.25,2.35-2.67,2.84-.81,4.12-2.83.71-1,2.75-.33,3.79-1.47,1.2-3.78.37-1.78,2.22.48,3.79-4.11,1.89.18,2.84-2.34,3-3.44.75.11,2.85-1.59.94-.9,3.79-3.63-.11-1.41,1.06-1,4.74v2.84l-1.33,1.13-2.83,0-.89,1.69.94,2.84-1,2.85-2.58,1.89.31,2.84-1.72,4.74-1.82,1.89-.46,2.85-1.73,1.89-1,2.84-1.73,1-1.58,4.78-2.84,1.74-.92,3.9-4.75,6.64-2.46,1.89-.85,2.85-4.26,7.24-3.78,2.7-1.64,4.27.28,2.84-.78,1.9-3.9,5.68-.3,2.85-1.22,1.58-4.73,3.71-3.31,5.13-4.26,1.25Zm112.53,0h-17l.61-6.16,2-3.79,2.47-2.84.3-2.85,2.75-3.79,2.27-4.68,3.28-2.9,1.45-3.92,1.67-1.76,2.8-5.69,2.51-1.89,1.77-6.64,2.59-2.72,1.16-3,.1-2.85,2.13-2.84,1.34-3.84,4.28-2.79,1.39-1.9.25-2.84,1.54-3.79,5.63-5.68.71-3.79,2.18-1.9,2.66-4.73.27-2,3.46-2.78.33-2.84,1.89-3.64,3.07-2,1.34-4.73,4.27-3.79.53-2.84,1.87-3.79,4.08-2.85.83-3.78,3.09-5.69,1.64-1.89,1.06-2.84,2.39-1.9.68-3.79,3.49-5.68,2.72-1.89.33-2.85,3.6-2.84,3.09-8.52,3.09-2.84,2.29-5.68,2.87-3.29,1.89-.5,1.39-1.9.35-3.79,2.92-2.84,1.79-5.68,2.06-3.55,2.74-2.13,1-4,2.83-4.11,2.84-1.73,1-1.55.7-4.74,4-5.54,3.37-2,.47-2.84,2.78-1.71,1.83-4.92,4.22-3.79.9-1.89,2.8-2.84.29-2.84,3.3-2.84,1.86-3.79,3.1-1.9,2.61-6.62,2.86-1.9,2.71-5.68,3.78-2.84,1.24-1.89.32-2.84,2.23-3.79,2.83-2.25,1.26-2.48.4-2.84,3.07-4.33,1.8-1.35,2.07-4.73,2.49-3.79,3-1.89.87-4.74,2.12-2.63,3-2.1.84-4.73,3.84-3.79,1.17-2.84,4.41-6,3.23-1.62.29-2.84,2.16-3.31,3.14-1.42,1.44-4.73,2.75-1.89,2.12-4.88,2.84-3.83,3.5-2.65.94-4.73,2.87-2.84,1.16-3.79,2.88-2.74,4.37-5.77,4.4-7.57,1.63-1.94,2.15-.9,1.63-2.13,2.84-5.32,2.15-2,.74-2.83,8-9.47,2.35-4.73,3.16-1.89.94-2.84,2.52-3.42,2-1.31,1.93-4.73,2.36-1.89.93-2.84,4.16-5.88,2.83-1.69,2.84-5.53,2.51-2,1.78-4.73,3-2.83,2.37-4.73,2.26-2.84,3.78-1.89,1-3.79,3.13-3.71L1881,823l3.12-1.89.81-2.84,2.89-4.73,3.16-2.84,1.69-4,2.64-1.67,1.14-3.79,1.64-2.83,3.09-3.61,2.08-1.12,1.41-2.84,2-1.89,2.47-3.78,2.76-1.9,1.86-3.78,2.82-2.84,1.66-2.8,3.9-1.92.56-2.84,3.51-2.84.3-2.83,4-6.21,2.83-2.16,2.82-5.82,3.8-2.72,1.53-3.9,2.82-3.78,5.49-5.67,3-1.9,3-4.72,4-2.72,2.81-4.85,2.68-1.89,2.08-4,3.78-4,2.84-1.67,2.58-4.54,6.36-5.67,4.29-4.79L1991,687l2.67-3.08,4.89-3.2,1.7-3.42,4.92-4.46,6.43-6.88,2.47-3.78,5.29-5.52,4.72-2.26,3.16-2.62,2.11-5.67,5.57-7.56,3.59-3.78,2.59-3.78,4.45-3.78,3-4.73,4.88-5.86,7.78-7.37,5.51-6.62,5.62-2.77.65-2.9,3.28-6.61,3.64-5.67,6.61-6.34,3.79-1.86,2.72-.31.71-3.78,3.55-8.5,6.26-7.24,1.6-1.26,4.07-6.68,2.84-3.42,2.73-2.19,5.49-9.44,2.84-3.78,2.32-1.89,3.8-4.73.78-3.78-.37-3.78.51-2.83,2.91-6.61,2.38-3.78.35-2.83,1.82-2.84,1.24-3.78,4.73-9.44,2.15-2.84,3.71-6.61,4.91-6.61,3.62-2.83L2161,460l4-3,5.07-7.38,4-3.77,7.06-4.1,5.67-1.64,1.89.44,4.13-8.87,4.72-7.55,3.11-2.84,4.12-2.12,5.67-.79,1.86-1.81.72-8.5,3.89-7.55,2-5.67.63-8.5-.54-1.88-2.83.63-3.79,3.14-5.67,5.67-8.51,5.37-2.33,2.18-6.18,3.7-1.08-.87,2-3.13,3.18-3.47.49-1.89-2.72-1.58-3.78-.36-5.68,2.46-3.78,2.31h-1.89l-3-1.89-1.1-6.61,2-2.83,4.91-2.8,15.13-10.13,3.74-3.12,4.77-3,3.78-.24,2.62,2.31-.58,1.89L2205.6,376l-3.06,5.66-.52,1.89,1.76,3.45,4.73-1.07,3.47-2.38,5-1.89,3.78-3.07,1.89-2.5,3-.09-.72,2.83,2.44,1.37,2.25-1.37,4.37-4.72,3.78-.06,3.79-2.94,2.83-3.33,3.79-3.37,3.78-4.78,1.89-1.32,3.78-.69,1.41,5.16,1.43,2.83,2-1.89,1.55-4.72,3.84-5.66-5.23-7.55,4.64-3.78,7.64-4.72,4.47-2.24,1.89-2.39,5.68-3.87,9.16-7.55,2.24-3.77-1-.53-6.62,3-4.73,2.54-5,1.64-3.8,1.89-3.45,2.47-4.73,2.22-6.62,4.3-10.4,5-5.59,3.93-4.17,1.89-3.48,2.64-4.73,2-4.73,4.05-6.62,3.74-1.89.54-1.4-1.68,1.61-3.78,9.25-8.16,8.51-6,3.49-2.8,8.8-6.26,4.5-4.13,14.49-10.38,11.27-8.43,13.84-11.39,8.86-5.64,4.84-3.8,6.51-3.78,5.67-4.09,2.84-1.62,2.83-.59,3.79-3,5.67-1.22,2.84-4.57,9.45-4.48,5.25-2.12,2.2-2.83,3-1.65,3.78.32,3.78-5,4.73-3.25,3.78-2,1.89-1.76,4.52-2.67,11.56-4.36,2.83-1.61,4.26-.63v44.35l-7.3,4.72-3.57,3.11-6.08,4.44-3.38,3.06-3.78,2.24-4.73,4.57-3.78,2.61-2.84,1-2.84,3.18-2.13,1.26-2.15,2.83L2354,314.6l-1.8,2.83-4.64,3.94-1.89.64-2.71,4.86-2,2.11-5.68,1.88-2.72,4.5-3.89,2.81-8,7.58-.44.94-5.8,5.15-6,6.18-2.49,3.11-5.41,4.44-4.05,4.61-7.56,6.49-4,4-4.54,3.75-9.49,8.52-3.75,2.28-3.78,4.1-2.92,2.12-6.54,7-6.58,5.27-7.24,7.55-6,8.27-4.66,7.79-1.05,3.77-3.51,4.73-7,11.33-2.3,2.83-4.18,7-1.94,4.38L2205.8,477l-3.76,4.72-5.46,7.55-2.78,2.84-2.53,4.72-2.93,2.84-2.28,5.66-6.38,6.62-2.85,3.77-8.63,9.45-2.88,2.84-5,6.54-4.72,2.28-2.84-.3-2.81-2.85-.42-3.78L2147,528l-.47-1.89,1.48-3.78.51-7.56h-1.73l-3.53,4.92-5.51,5.47-2.35,7.56-4.55,6.61L2128,546l-.12,4.72,3.12-.16,8.51-6.71,1.89-.66,3.28,2.81.31,4.72-2.64,3.19-5.68,4.72-1.46,2.49-7.31,9.44-7.32,8.51-9.4,9.45-2.21,2.83-7.29,7.52-4.72,4.3-5.15,6.14-6.13,6.61-5.69,7.57-3.29,2.83-5.18,5.67-3.88,4.9-4.14,3.61-2.3,2.83-7.68,7.57-7.25,8.5-4.48,4.73-2.63,3.78-8.4,9.27-4.73,4.12-6.84,7.41-3.06,4.73-3.83,3.78-2.14,2.83-4,2.51-2.39,2.22-2.79,4.73L1994.8,718l-10.4,10.12-2.84,4.06-5,4.73-1.59,2.83-5.67,6.8-3.6,2.66-6.8,9.2-9,9.71-1.42,1.2-7.37,9.21-2.66,3.78-4.32,4.73-1.6,2.84-6.51,8.51-5.82,6.62-3.58,5.67-8.27,8.52-3.37,4.66-5.45,9.52-1.65,4.73-3.92,5.68L1882.69,857l-6.09,8.07-4.14,7.07-2.66,5.68-5.64,6.62-3.64,3.31-2.84,4.76-4.72,5.65-1.56,4.26-6.3,10.41-4.16,5.67-5,5.68-7.56,12.3-6.43,7.58-3,4.46-3.78,3.56-5.44,7.12-5,5.92-1.89,1.4-5.4,7.82-2.73,6.63-2.28,3.08-1.89,1.41-4.72,5.52-3.35,3.24-2.12,4.73-3,3.79-1.57,2.84-7,9.2-2.6,6.89-5,6.34-2.84,2.43-6.3,8.27-2.44,3.79L1745,1052l-4.68,4.73-3.81,7.57-2.15,2.84-3.46,6.63-1.82,2.33-3.78,3.24-2.7,3.9-1.09,2.84-3.16,4.74-1.87,3.78-5.78,8.53-5.26,9.51-1.35,1.85-6.22,6.63-3,5.68-5.61,6.63-2.85,6.63-5.07,8.53-2.42,2.84-3.84,5.68-1.54,3.79-8.85,10.42-1,3.79-1.75,3.47-4.77,6-1,2.84-3.66,7.15-2.83,4.22-4.26,4.74-1.42,3.36-2.84,2.13-1.91,3-.71,3.78-4,5.3-1.9.88-5.67,8-.38,3.79-1.38,3.79-3,6.06-1.89,1.42-3.2,4.83-3.05,2.85-6.3,9.47-3.23,8.53-3.13,3-4.05,6.53Zm276.12,0H1843.5l1.67-5.21,2.88-4.74,9.63-10.77,4.46-4.39,4.67-6.64,8-7.58,5.1-6.63,3.36-4.86,6.61-6.62,3.79-2.83,4.73-4.21,3.38-2.33,6.07-5.71,2.84-2,7.56-3.84,6.62-5.12,5.68-6.76,4.72-2.7,1.78,1.47-.11,4.74-4.38,7.58-.42,2.84-2.54,1.21-2.14,2.58-.74,3.79-3.61,2.84-2,2.8-2.84,1.6-5.23,5.08-.5,1.89-4.67,3.4-3.13,1.34-.35,2.84-5.37,4.74-.88,1.9-3.51,3.85-3,1.83-1.61,4.74-4.06,3.79-.8,2.84-2.85,2.84-.91,2.18-2.5,1.62-.33,1.94-5.68,5-1.6,4.4-3.12,1.26Zm301.65,0h-79.43l-.81-.47,1.16-6.64-.35-1-6.62,3.66-3.78,1.11-6.62.41,1.89-1.8,2.92-1.45,1.49-1.9-.26-2.84-3.2-3.19-.73-1.55-.54-4.74,1.93-4.73.43-2.85,5-9.47,2.55-5.69,1.32-4.74,1.46-2.84,1.42-4.74,2.06-4.73-2.64-1.21-1.89,1.19-3.78.33-3.79,1.38-1.89,1.64-3.78,1.18-2.84,2.5-3.78.57-1.35,1.89-3.38,2.42-2.83.88-5.5,4.28-6.8,3.42-12.29,10.93-3.51,3.66-3.27.94-.51,1.9-2.17,2.06-2.83.34-.58,2.34-5.1,3.44-2.83,2.42-2.84.08-1,2.27-3.78,3.1-2.84,0-.94,3.17-2.84,1.2-2.84-1.68-1.89,3.55h-23.64l.69-3.32,2.15-1.66-.78-4,3.93-1.9-.31-4.41,2.83-.49-1-4.58,2.08-1.89-.42-2.84,2.19-.93,2.37-3.81.31-1.9,2-1.39,0-4.29,4.4-1.9-.32-2.84,1.43-.95,1-4.74,2-1.42,8.51-9.23,2.59-1.66,4-5.31,3.78-2.27,2.7-3.79,4.83-2.85,1.9-2.84,4.76-2.84,4.39-3.79,1.28-2.06,3.52-2.68,4.55-5.68.9-1.9,8.49-9.47,3.34-2.84,2.84-3.36,3.66-3.27,5.24-5.69,5.84-7.57,5.15-5.69,5.26-6.63,6.53-7.57,5.26-5.69,4-6.63,8-8.52,5.28-7.58,2.51-1.89,2.37-3.79,4.56-4.73,1.5-2.79,3-1.95,4.72-6.63,2.31-1.89,7.94-10.34,2.24-1,2.38-3.78,5.78-4.83,3.9-4.64,2.72-1.74,1.89-4,7.56-5.72,5.31-6.51,7.08-5.68,4.63-4.31,4.52-5.16,2.65-4.73,5.13-3.88,1.89-.72,3.78-3.3,7.57-4.8,4.48-5.29,1-2.84,3-1.4,2.83-3.58,5.6-5.43,5.75-3.27,1.8-2.41,5.77-4.88,2.83-4.07,2.84-2.07,2.84-.64,2.28-1.59,1.56-2.84,7.5-4.87,1.9-2.12,4.5-2.48,3-3.78,4-1.9,5.22-5.68,2.12-2.83,13.31-9.54,3.94-1.82,10.2-8.52,2.75-2.84,5.8-2.8,8.59-6.66,2.89-1.89,4.49-4.73,1.21-1.9,0-3.78-5.79-.51-2.84-1.38-.6-1.9,3.12-1.89,1-1.89-3.71-4.73,1.14-3.27L2328,893l3.45-3.73,2.84.89-.06,4.73,8.57,7.93,3.78-.21,4.73-3.51,4.73-1.61,5.67-2.55,4.73-2.69,4.81-4,5.88-5.68.55-1.89-9.35-1.2-2.84.25L2361.7,875l-3.78-3.84-3.78-.51.84-7-1.54-4.73,4.48-8.1,5.9-7,5.45-5,3.19-3.53,11.22-10.41,6.39-6.89,3-2.57-3-1.29-7.56.86-8.51,1.59-7.57-.33-3.78.45-8.36,2.51-6.77,2.36-9.46,3.67-5.67,1.48-3,2.89-3.65,4.88-7.57,6.13-3.78,1-3.51,2.22-2.16,2.48-4.56,3.2-1.73,1.89-2.83,4.73-6,3.49-5.68,5.68-6.62,4.35-4.72.62-5.68,3.06-3.78,3.84-2.84,5.45L2253,886.34l-5.68,2.17-2-.27-1.5-2.84.27-3.79,3-4.73,3.24-3.78,7.3-5.82,5.72-2.7,2.85-1.89,4.67-4.41,5.64-3.16,4.16-5.67,3.44-2.87,8.51-3.71,8.61-6.67,3.09-4.73,12.89-10.57,3.78-1.13,4.73.57,5.67-2.81,9.46-6.53,6.62-3.32,6.62-2.19,5.71-4.29,18.87-11.28,5.68-2.37,8.51-4.44,7.09-2.71V887.29l-8.57,7.57-4.17,2.84-3.81,3.2-4.73,3.28-7.56,6.46-3.78,2.58-7.57,6-4.73,3-2.77,3-2.9,2-5.41,4.66-5.94,6-3.78,3-2.84,1.42-7.56,5.07-3.15,3.45-5.36,3.79-4.73,2.41-6.65,5.16-9.43,9.43-6.62,4.44-9.45,5.54-1.89.8-3.76,3.45-6.82,4.73-12.12,9.06-9.46,5.87-18,13.87-10.4,9.21-6.79,5.54-2.67,2.84-4.64,3.78-4.82,5.18L2185.82,1057l-4.33,3.46-6.71,6.62-13.14,14.21-9.87,12.08-5.67,6.3-11.64,17.6-2.11,6.63-2.07,3.79-3.09,2.64-6.62,3-2.84,2.15L2113,1141l-1.48,2.84-6.18,7.58-5.58,7.77-2.22,5.49-5.34,8.52-8.35,7.58-8.67,6.34-11,12.61-2.68,3.79-2.71,7.58,1.26,1,4.73-1.5,7.56-3.7,4.73-1.66,6.62.87,4.73-.37,5.67-1.39,3.78-1.41,8.51-1.94,4.73.1,2.84-.54,12.29-1,7.57-.12,6.62,1.34.19,1.89-4.23,6.63L2131,1215l-2.84,3.66-4.29,8.52-3.89,6.64-2.22,2.84-.95,3.08,3.79,1.33,3.78-.11,2.84-.84,1.29,1.28-3,5.68,1.56,4.74-.07,5.69-.71,4.73.4,6.64.72.94L2130,1262l7-8.24,4.26-2.85,12.36-11.81,3.53-5.24,6.83-6.64,2.5-3.79,9.1-9.47,2.5-1.89,4.86-2.11,7.09-5.47,2.74-2.85,3.94-2.84,6.09-6.63,4.43-3.79,6-3.52,14.18-9.74,5.68-2.8,5.67-2,4.73-1,3.78,1.76.14,1.22-4.22,8.52-11,15.45-3.78,4.45-4.5,6.63-2.35,2.84-4.55,6.63-3.29,3.79-1,2.84-3.26,5.32-6.77,8.9-2.83,4.73-1.49,5.69-4.52,4.74-.73,1.89-3.52,4.36-2,5.12-.27,4.74-3.36,5.8-5.48,7.46-4,6Zm82.27,0h-64.3l1.89-2.34,4.73-4.19,7.57-5.62,2.83-1.17,1.89-3,3.79-2.59,2.83-1,2.84-.05,5.67-2.54,2.84,1,1.89-2.64,4.73-1.07,1.55-3.79,6.11-3.79,1.76-3.79,4.76-2.63,5.15-4,5.26-5.47,3.78-2.24,4.54-1.76,2.08-1.73,6.62-3.56,8.51-5,6.62-2.39,2.83.73.68,1.57-.51,2.85-2.06,4.46-7.23,10.7-2.8,6.63-2.26,4.24-8.51,12-1.89,1.79-4.9,9.48-3.09,2.84-3.36,5.69Zm23.64,0,.33-2.37,2.51-3.42,5.68-5.5,7.56-6.24,5.52-2.85,9.61-7.24,2.84-.8,2.83,1.58.83-4.91,4.39-6.63L2324,1249l3.67-1.9,6.19-4.74,6.1-3.68,6.16-4.84,6.14-6.34,5.93-3.14,3.52-2.59,4.73-2.06,7.57-5.77,2.83-1,5.49-3.77,4-3.27,7.56-4.05,5.68-2.56.47.41v57.8l-2.36.8-.95,2.51,3.31.48v32.22l-.47.47Z" fill="#8ce0cb"/></g></svg>