<svg id="Layer_1" data-name="Layer 1" xmlns="http://www.w3.org/2000/svg" viewBox="0 0 2400 1294"><g id="countours"><path d="M527.75,67.41l.38-2.94L531,61.31l7.28-7.1,6-4.42L547,47.1l3.79-1.89,10.4-7.08,1.71,1.94-5.49,4.47-5.68,4.11-2.83,1.53-5.29,5L538.53,58ZM501.13,98.53h-1.77l2.57-4.71L506.19,90l-.75,4.17-2.84,3.47ZM417.49,203.24l-.07-1,4-5.66,4.6-5.16,2.29.45-4.18,5.18-4.72,5.19Zm-14.18,17,.73-2.83,4.27-3.77.77.94L406.15,218ZM338.06,275,335.4,274l4.62-7.55,6.55-6.49,5.68-5,8.51-6.58,3.78-3.22,7-5.16,18.1-12.27,7.06-2.16-.95,3.1-7.56,8.23-9,7.81-2.39,2.88-3.78,3.31-4.73,3.25L365.74,257,358,261.74l-9.24,6.61-3.15,2.83ZM305.91,0h3.78l.5.47.22,10.37-1.26,6.6L306,27.81l-.46,2.83.1,6.6-1.06,6.6L304,53.27l-1,5.66-.7,8.48L300.58,74l-.29,9.43.36,4.72-.55,6.6-.4,9.43-.48,2.83-.08,7.55-.63,3.77-.68,10.37-1.43,4.72-2,3.77-1.1,7.55-1,2.83-1.46,6.6-.11,2.83-1.76,6.6-1.52,7.55-.81,5.66-1.07,3.77L283,200.41l-3.44,8.49-3.34,6.6-3.3,4.72-3.58,6.61-3.63,3.77-4.54,6.61-4.59,4.71-6.81,9.44-3.65,3.78L240.66,259,235,263.57l-4.14,3.83-7.07,5.67-8.46,5.66-6.81,2.76-6.62,1.4-12.29,6.19-10.4,4.69-7.45,3.84L166,301.8v-3.57l2.21-5.34,1.47-4.72L176,275.9l2.29-3.35,3.05-2.32,3.57-6.35,4.73-4.82,2.83-1.12,3.79.09,1.19-6.67,5.94-7.55,2.32-1.51,7.57-.16,2.84-.79-.37-6,3.2-3.59,2.84-.86,3.78,1.67,2.84-2.49,16.07-8.3,2.21-6.25,4.95-5.66,3.91-2.83,1.54-1.89,2.84-7.54,2.43-2.83L263.8,191l1.45-5.95,5.67-6.89,1.06-2.25,1.54-10.38,1.18-3.27,2.84-4.28L281,147.58l2-4.72,2.33-9.43,3.42-18.86.8-6.61-.41-4.71L290,91l-.09-10.38L291.25,75l1-9.43,2.37-10.38,1.55-9.42.74-2.83V34.41l.66-3.77,1.7-3.77L299.24,24l2.94-13.2L302.52,8,305.24.47ZM769.27,365.57l-.95-.31-7.06-6.3-3.93-4.72-2.15-3.77.3-1.89,2.16-2.83,4.06-2.42,3.78,1,2.9,6.14,5.33,2.83,1.91,1.89L774.37,359l-4.16,6ZM148,430.73l-1.89-.48-1.71-2.36-2.77-11.33.7-6.14.83-2.36-.61-3.78L140,400.51,138.57,393l.8-4.72-2.62-2.83-.49-1.89.9-2.83.43-6.61-2.1-4.72-.5-3.78,2.6-3.77,4.2-7.56.83-3.77-.58-2.84.56-5.66,5.49-10.38,2.47-2.84,5,.92,1.11,2.86-1.74,11.33-.82,1.89-.92,5.66L152,355.19l-.1,4.72.79,4.72-.3,3.78,2.26,6.29,3.13,4.09,4.44,1.72,4.72.2,7.57-1.74,5.67-2.07,10.79-4.72,9.16-4.72,5.58-3.47,15.13-7.83,5.87-3.8,6.33-5.67.45-.94,5.88-4.72,4.91-4.72,6.82-5.87,7.57-6.11,6.4-4.07,9.67-5.07,5.68-1.77.94,1.18-7.56,7-1.89,1.21-3.78,4-8.52,6.5L254,339.14l-4.16,3.77-3.9,2.84-6.23,6.61-3.79,3.47-5.2,4.08-7.09,7.78-4.59,4.49L215.38,375l-7.52,4.72L200,388.06l-3.78,2.31L192.31,392l-5.17,4.72-4.75,2.83-2.76,2.84-3.27,1.67-2.84.56L172,407.12,166.9,409l-.94,5.16-1.89,3.23-7.57,7.91-5.67,4.87ZM1389.83,665l-8.74-.59-4.1-2.24-.2-1.89,1.26-4.73,2.09-3.18,1.89-.73,5.68-.32,4.72-2.25,10.41-6,2.83-.76,4.73,0,1.89-1.89,5.68-10.06,2.76-4.12,1-7.56,2.46-2.84,1.32-4.86,5.68-4.76,4.72-1.6.76,2.72-3.49,9.45-2.65,3.78-3.43,6.62-1.72,6.61-3.45,5.67-2,5.67L1416.8,649l-3.25,4.72-6,4.65h-2.84l-2.84,1.5-2.84.54ZM548,844.72l-.16-6.63,3.35-8.51,3.17-1.89-.41,4.73-5,11.89ZM185.68,918.51l-4.59.06-3.79-1-5.67-3.16L168,912.84l-9.26-5.68-4.83-4.73L148.12,893l-4.36-12.3-.84-3.79-1.3-9.46L139.48,857l-.77-7.56L136.45,839l-.8-6.62-3.43-18-.58-4.73-3.17-14.19L125,786.07l-3.5-10.52-2.47-6.5-2.35-4.73-2.64-6.62-2.27-6.62-2.56-5.26-3.78-5.57L99.76,735,93,729.33l.37-1.89,4-1.89,2.47-1.89L102.6,717l2.84-1.82,3.78.51,2.84,3.64,4.72,1.3,4.13,3.94,4.47,6.61,1.29,3.79.27,2.83,3.08,3.63,1.78,4.88,2.44,8.51.36,4.73,1.13,4.73.37,3.78,1.49,3.89,1.18,5.57,4.49,15.51,2.27,10,.1,5.67,3.31,17,.33,4.73,1.82,6.62.19,8.51-.55,6.62,2.26,6.63,6.35,10.4,2,4.73.27,4.73,1.4,3.79.56,3.78L167,892l0,2.84,2.78,4.37,6.62,5,3.78,1.76,4.73,1.36,3.78,2.17,2.84.92,3.78-.18,6.62-2.67,2.79-3.26,6.67-6.62,5.67-6.5,3.62-4.86,2.74-5.67,4.38-7.57,2.5-5,.22,4-2.54,5.68-.79,2.84-3,4.73-3.33,6.88-3.25,4.47-5.26,5-3.78,4.33-3.78,3L199.05,913l-6,2.68Zm294.6,30.29-.37-1.9,2.36-4.73,2.9-3.78,1.22-4.74,3.92-7.57,7.56-8.32,1,1.7-4.38,6.62-2.3,4.82-4.89,6.54-4.06,6.63L482,946.9Zm-6,11.35-.54-.94,1.49-3.05,1.89,1.15Zm-8.51,15.15.95-3.92,2.41.13-2.41,3.6Zm768.8,48.27-1-.69-.28-5,.56-.94,4-1Zm-792.37.95-.51-2.84,1.19-2.84,5.28-8.52,1-3.79,2.44-3.38,1.17,2.44-6.17,9.46-1.62,4.42ZM1232,1045.35l-2.2.63-1.33-3.47.32-4.74,3.84-.75,1.46-2.09-.78-4.73,1.22-.06,2.36,3.85v3.78l-2.36,5.12Zm-8.47,53-4.13.58-2.93-7.21.09-5.2,4.73-4.11,2.83-1.37,3.79.65v2.77l-3.6,13Zm-442,188.52-3.78.48-3.78-2.69-5.68-.39-.47-3.08-1.42-2.85v-5.68l-1.89-3.48-3.07-4.1-.71-4.74,2.12-7.58.31-3.79,1.21-5.69-.13-1.89-2.57-5.93-2.43-3.55-.54-1.89-.18-6.64,1.26-2.84-.57-3.79-2.46-3.79-2.33-8.52v-1.9l1.85-7.58,1.62-2.84,1.49-1,5.13-1.1,1.89,1.78,2.84,8.92.59,5.56,2.4,6.63,1.74,2.34,1.91,4.29,3.16,13.27,3.2,5.68-.31,2.85,1.33,5.68-2,1.9-2.55,3.79-.6,1.89,2,7.58,3.67,5.69,1.07,6.63,1.08,3.79-.55,3.79Zm420.05,5.69-2.08.68-6.62-2.42-3.78-.16-1.9-.94-.28-2.85,2.18-2.1,3.78-4.93,3.78-2.08,2.63-2.26,4.94-5.87,2.83-1.47,2.84,1.34v3.16l-.83,7.58L1208,1285l-4.87,6.63ZM787.23,1294h-9.45l1.89-4.26,2.84.31Z" fill="#82c7d3"/></g></svg>