<svg id="Layer_1" data-name="Layer 1" xmlns="http://www.w3.org/2000/svg" viewBox="0 0 2400 280"><path d="M2360.44,174.31c-68.54,5.59-138.12,10.32-206.8,14.05-69,3.75-139.08,6.61-208.27,8.49-69.5,1.89-140,2.85-209.68,2.85-74.17,0-149.27-1.09-223.24-3.23-73.59-2.14-148.16-5.36-221.64-9.62-73.13-4.24-147.13-9.6-219.94-15.92-72.51-6.31-145.91-13.75-218.15-22.14-72-8.34-144.72-17.85-216.26-28.24-71.3-10.36-143.39-21.9-214.28-34.28C351.54,73.93,280.15,60.4,210,46.06,140.14,31.78,69.49,16.28,0,0V280H2400V171Q2380.19,172.69,2360.44,174.31Z" fill="#f2f5ff"/></svg>